<?xml version="1.0" encoding="UTF-8" standalone="no"?>
<!-- Created with Inkscape (http://www.inkscape.org/) -->

<svg
   xmlns:dc="http://purl.org/dc/elements/1.1/"
   xmlns:cc="http://creativecommons.org/ns#"
   xmlns:rdf="http://www.w3.org/1999/02/22-rdf-syntax-ns#"
   xmlns:svg="http://www.w3.org/2000/svg"
   xmlns="http://www.w3.org/2000/svg"
   xmlns:sodipodi="http://sodipodi.sourceforge.net/DTD/sodipodi-0.dtd"
   xmlns:inkscape="http://www.inkscape.org/namespaces/inkscape"
   width="149"
   height="409"
   id="svg6321"
   sodipodi:version="0.32"
   inkscape:version="0.48.2 r9819"
   version="1.0"
   sodipodi:docname="Pilsner.svg">
  <defs
     id="defs6323" />
  <sodipodi:namedview
     id="base"
     pagecolor="#ffffff"
     bordercolor="#666666"
     borderopacity="1.0"
     gridtolerance="10000"
     guidetolerance="10"
     objecttolerance="10"
     inkscape:pageopacity="0.0"
     inkscape:pageshadow="2"
     inkscape:zoom="0.35"
     inkscape:cx="375"
     inkscape:cy="520"
     inkscape:document-units="px"
     inkscape:current-layer="layer1"
     inkscape:window-width="853"
     inkscape:window-height="573"
     inkscape:window-x="317"
     inkscape:window-y="76"
     showgrid="false"
     inkscape:window-maximized="0" />
  <metadata
     id="metadata6326">
    <rdf:RDF>
      <cc:Work
         rdf:about="">
        <dc:format>image/svg+xml</dc:format>
        <dc:type
           rdf:resource="http://purl.org/dc/dcmitype/StillImage" />
      </cc:Work>
    </rdf:RDF>
  </metadata>
  <g
     inkscape:label="Layer 1"
     inkscape:groupmode="layer"
     id="layer1">
    <g
       id="g3015">
      <path
         style="fill:#fcfcfc"
         d="M 0,204.5 0,0 74.5,0 149,0 149,204.5 149,409 74.5,409 0,409 0,204.5 z"
         id="path6319"
         inkscape:connector-curvature="0" />
      <path
         style="fill:#f2f2f2"
         d="m 51.5,408.42089 c -1.1,-0.2296 -8.576652,-0.80095 -16.614783,-1.26966 C 17.321013,406.12705 13.00325,404.42161 9.1846264,397 5.9852875,390.78199 6.6366928,385.75053 12.247155,373.345 25.513435,344.01138 31.916424,310.22408 30.694886,276 29.838787,252.0145 26.139716,228.51637 13.614839,167.5 9.6798081,148.33005 5.79554,122.63279 3.5234027,100.73781 1.4722133,80.971946 1.0056278,3.2325898 2.9310419,2.0426185 3.629341,1.6110459 36.27111,1.1734047 75.468307,1.0700825 145.83559,0.88459725 146.74251,0.9073433 147.2559,2.8705625 148.16236,6.3368825 148.04214,62.564246 147.07602,87 c -1.16458,29.45529 -6.43486,68.25148 -14.19585,104.5 -3.58284,16.73401 -8.40739,50.00863 -9.84426,67.89522 -3.51513,43.75713 2.43843,79.91101 19.05045,115.68684 6.48179,13.95925 6.34735,18.46767 -0.74708,25.05378 -5.05177,4.6898 -9.01964,6.00311 -21.22116,7.02387 -12.11508,1.01354 -65.135814,1.98804 -68.61812,1.26118 z M 64.25,387.60438 C 65.2125,387.3065 66,386.14865 66,385.03138 66,383.70494 66.656918,383 67.893011,383 70.226672,383 71,381.12418 71,375.46353 71,371.2835 70.850274,371.06254 67.605297,370.45378 60.928947,369.20129 59,372.2677 59,384.13347 c 0,5.29302 0.175628,5.78959 1.75,4.948 0.9625,-0.51451 2.5375,-1.1792 3.5,-1.47709 z m 4.042382,-23.57587 c 0.43581,-0.3923 0.09831,-1.2893 -0.75,-1.99334 -2.323838,-1.92861 -1.88033,-3.62573 1.674566,-6.40785 l 3.216948,-2.51764 0.03305,-20.80484 c 0.04767,-30.00449 -1.211755,-64.44965 -2.399923,-65.63782 -0.683698,-0.68369 -1.780752,-0.66285 -3.376329,0.0641 l -2.363556,1.07691 -0.79757,32.34596 c -0.438664,17.79029 -0.935113,39.88523 -1.103221,49.09988 l -0.30565,16.7539 2.68965,-0.63301 c 1.479308,-0.34816 3.046223,-0.95399 3.482033,-1.34629 z M 91.275785,319.97499 C 91.152466,318.06375 90.605585,310.65 90.060494,303.5 c -0.545091,-7.15 -1.284122,-22.11835 -1.642293,-33.26299 -0.35817,-11.14464 -0.991655,-20.47339 -1.407744,-20.73055 -2.262342,-1.3982 -2.794761,30.27235 -0.958128,56.99354 1.178024,17.13909 1.313382,17.77285 3.694647,17.2989 1.323484,-0.26342 1.698085,-1.20038 1.528809,-3.82391 z M 63.614464,198.39996 c 0.358912,-1.43002 0.308017,-11.66752 -0.1131,-22.75 C 63.080246,164.56748 62.796641,122.29894 62.871129,81.719874 62.978298,23.338019 62.744997,7.8733261 61.753282,7.6214869 61.063977,7.4464428 59.15,6.8730897 57.5,6.347369 54.57461,5.4152852 48.599616,6.0657337 47.199254,7.4687264 46.130122,8.5398667 46.707656,85.200519 47.965943,109.23744 c 2.074223,39.62366 7.170401,79.31189 11.227061,87.43456 2.488748,4.98324 3.504778,5.38031 4.42146,1.72796 z M 94.000752,175.99618 C 97.888591,156.27121 99.459095,130.36387 100.60811,67 101.35585,25.764475 100.73432,10.219015 98.300563,9.2850954 97.474236,8.9680039 96.400457,9.3366382 95.914388,10.104283 95.428319,10.871927 95.023735,34.250449 95.015313,62.056554 95.000747,110.14704 94.066282,135.00538 91.032729,168 c -2.065484,22.46536 -0.640549,26.3043 2.968023,7.99618 z M 47.683114,173.8125 c -0.319226,-0.79773 -0.556183,-0.56078 -0.604167,0.60417 -0.04342,1.05416 0.192928,1.64479 0.52522,1.3125 0.332291,-0.3323 0.367818,-1.19479 0.07895,-1.91667 z M 45.568201,141.87531 C 44.735214,127.91889 43.75332,112.9 43.386214,108.5 43.019109,104.1 42.444531,79.8 42.109375,54.5 41.710185,24.366262 41.155081,8.6724594 40.5,9 c -1.747638,0.8738189 -1.068755,89.009554 0.881958,114.5 0.92598,12.1 2.085321,24.475 2.576315,27.5 0.490993,3.025 1.188356,8.12539 1.549696,11.33419 0.36134,3.20881 0.86348,5.62769 1.115868,5.37531 0.252387,-0.25239 -0.222649,-11.87778 -1.055636,-25.83419 z M 21.617286,117 C 19.079365,90.270059 18.058525,73.520225 17.930035,56.5 17.863602,47.7 17.528053,36.675 17.18437,32 L 16.559491,23.5 15.878643,29 c -2.350958,18.991394 0.497269,73.78381 5.354161,103 1.967033,11.83251 2.172192,3.82855 0.384482,-15 z M 128.91281,99.5 c 1.65577,-28.393952 2.22597,-60.407603 1.27349,-71.5 l -0.90161,-10.5 -0.16878,9.5 c -0.21204,11.935332 -1.87301,69.026475 -2.53112,87 -0.68424,18.6873 1.007,8.15343 2.32802,-14.5 z"
         id="path6317"
         inkscape:connector-curvature="0" />
      <path
         style="fill:#ececec"
         d="m 52.5,408.43208 c -1.1,-0.22479 -8.623444,-0.8225 -16.718764,-1.32824 C 23.288876,406.3234 20.420733,405.83003 16.819937,403.84216 7.3922461,398.63746 5.4339008,389.52671 11.099264,377.22804 26.556131,343.67348 33.14222,308.80344 31.039746,271.65319 29.855205,250.72262 27.273011,234.03628 17.939748,187 4.4544414,119.03891 2.0100345,96.536143 2.004059,40.2989 L 2,2.0977996 17.75,1.7686523 C 26.4125,1.5876213 58.779637,1.3304144 89.676971,1.1970814 134.27414,1.0046287 146.01963,1.2169944 146.65772,2.2273289 147.96883,4.303268 148.24729,50.461149 147.12087,79 c -1.34439,34.06158 -6.32953,72.52054 -14.12886,109 -3.26725,15.28177 -7.98356,45.01446 -10.07262,63.5 -1.62439,14.37382 -1.65511,46.33956 -0.0567,59 2.84287,22.51736 10.35711,48.07336 19.406,66 4.9427,9.79194 5.28207,14.55825 1.44897,20.35046 -4.05949,6.1343 -10.77006,8.90899 -24.71766,10.22026 -11.5128,1.08236 -62.734134,2.13095 -66.5,1.36136 z M 24.993486,392 c 0.07373,-1.375 1.379416,-6.325 2.901522,-11 1.879069,-5.77138 2.422196,-8.72792 1.69191,-9.21001 C 27.044171,370.11142 19,384.39265 19,390.58548 c 0,2.16132 0.783736,4.06677 2.225005,5.40952 2.087431,1.94473 2.268577,1.9626 2.929714,0.28895 C 24.54231,395.30278 24.919755,393.375 24.993486,392 z m 105.072254,4.96482 c 2.71107,-1.45093 2.5019,-6.68537 -0.4831,-12.08887 -1.32954,-2.40677 -2.90442,-6.17595 -3.49973,-8.37595 -0.59531,-2.2 -1.50803,-4.66197 -2.02827,-5.47104 -1.59471,-2.48008 -2.35519,-0.32725 -1.11978,3.16999 1.50872,4.27097 4.06475,17.50773 4.06497,21.05105 1.9e-4,3.05438 0.27535,3.20828 3.06591,1.71482 z M 70.6471,392.47726 c 0.538989,-1.40458 0.999716,-18.37638 0.623755,-22.97726 -0.08989,-1.1 -0.157601,-3.6875 -0.150476,-5.75 0.0071,-2.0625 -0.0501,-4.3125 -0.127161,-5 -0.07706,-0.6875 0.60588,-3.275 1.517652,-5.75 2.708647,-7.35261 2.092466,-80.36274 -0.885391,-104.90827 C 71.315625,245.53769 66.792899,241 64.557143,241 c -1.5041,0 -2.224071,20.85621 -3.10197,89.85832 -0.344867,27.10631 -0.86228,40.02501 -1.662135,41.5 -1.226387,2.26154 -3.789924,19.61139 -3.086862,20.89168 0.226522,0.4125 3.324423,0.75 6.884226,0.75 4.873686,0 6.616698,-0.37612 7.056698,-1.52274 z M 58.031266,333.19848 c 1.123425,-10.83397 1.123889,-58.67174 5.97e-4,-61.69848 -0.408235,-1.1 -1.029665,9.475 -1.380955,23.5 -0.351291,14.025 -0.871828,31.575 -1.15675,39 -0.596162,15.53587 0.89175,15.06581 2.537108,-0.80152 z m 33.81507,-8.08235 c 1.117547,-0.70825 1.140758,-3.04224 0.136589,-13.73469 -1.781112,-18.96536 -1.447825,-83.58174 0.450038,-87.25181 1.01214,-1.95726 1.42212,-6.25662 1.401581,-14.69806 -0.01597,-6.56236 0.464729,-13.5036 1.068213,-15.42497 0.603484,-1.92137 1.107283,-5.74637 1.119555,-8.5 0.02484,-5.57281 3.268541,-26.55016 4.384668,-28.3561 0.49954,-0.80826 1.27788,-0.85434 2.58797,-0.1532 C 105.90391,158.55413 106,158.38886 106,151.82874 106,144.94877 107.69658,142 111.65499,142 113.72417,142 114,141.5295 114,138 c 0,-3.33333 0.33333,-4 2,-4 1.83268,0 2,-0.66667 2,-7.96862 0,-6.30123 0.28409,-7.85959 1.35772,-7.4476 1.09476,0.4201 1.33686,-1.52254 1.25,-10.03037 C 120.52894,100.83703 120.16414,98.001771 119.25,98.001023 118.4168,98.000341 118,96.332788 118,93 c 0,-3.580254 0.39116,-5 1.37756,-5 2.26946,0 3.89564,-2.775343 3.21506,-5.487014 C 122.18451,80.886985 121.2627,80 119.98095,80 118.33651,80 118,79.32051 118,76 c 0,-2.2 0.45,-4 1,-4 0.55,0 1,-1.327639 1,-2.95031 0,-1.690119 0.69785,-3.340848 1.63378,-3.864622 1.05654,-0.591269 1.80813,-2.728731 2.12723,-6.04969 C 124.03241,56.31092 124.64721,54 125.12723,54 c 1.22765,0 1.05583,13.702559 -0.6144,49 -1.29936,27.45961 -2.1175,39.84049 -4.14657,62.75 -0.35317,3.9875 -0.37249,7.25 -0.0429,7.25 1.0629,0 3.72283,-10.23984 5.19525,-20 5.11015,-33.87337 7.03977,-71.330369 6.6085,-128.281385 -0.10781,-14.236476 -0.36475,-16.872587 -1.6943,-17.3827824 -2.65164,-1.0175322 -3.48343,1.0023825 -4.1185,10.0013564 L 125.70294,26 122.85147,26 C 120.19142,26 120,25.731476 120,22 c 0,-2.2 -0.45,-4 -1,-4 -0.55,0 -1,-1.8 -1,-4 L 118,10 113.75,9.8683588 109.5,9.7367175 113,9 c 1.925,-0.4051946 3.05,-0.8575036 2.5,-1.0051311 C 112.83185,7.2787023 99.788533,6.8881495 83.732444,7.0436612 70.827805,7.1686495 65.555152,6.8756981 64.46784,5.9733098 63.644464,5.289968 59.83935,4.5068167 56.012031,4.2329734 50.42647,3.8333286 48.515433,4.0874807 46.327756,5.5209017 44.469167,6.738696 43.479956,6.9398678 43.217788,6.1533634 42.767952,4.8038557 38.369919,4.592442 37.572919,5.8820142 37.273106,6.367122 34.209048,7.0648306 30.763902,7.4324777 L 24.5,8.1009271 24.820969,17.050464 C 25.032384,22.945322 24.776392,26 24.070969,26 c -0.589033,0 -1.07786,1.0125 -1.086282,2.25 -0.01859,2.731629 -1.604015,5.464006 -2.595258,4.472762 C 19.993804,32.327137 19.685272,26.60267 19.703803,20.001722 19.736853,8.2286729 19.694823,8 17.497914,8 15.507325,8 15.184228,8.6549985 14.591793,13.891431 13.533779,23.243041 13.787295,75.074362 14.968945,91 c 2.269611,30.58859 7.870324,66.30816 13.047591,83.2134 2.189266,7.14857 4.80568,10.64768 3.653308,4.88582 -1.024881,-5.1244 -2.934993,-26.1674 -2.421844,-26.68055 0.769379,-0.76938 4.914238,11.50981 4.248668,12.58672 -0.345201,0.55855 0.485453,0.99461 1.894625,0.99461 1.38013,0 2.869187,0.62484 3.309017,1.38853 0.439829,0.76369 1.67452,1.55251 2.743757,1.75292 1.582461,0.29662 2.280186,2.03789 3.751118,9.36147 3.370198,16.77979 5.000855,23.98665 6.334742,27.99708 0.73173,2.2 1.542047,4.9 1.800703,6 0.863342,3.67158 -0.337859,-17.91099 -1.335747,-24 -0.540814,-3.3 -0.955449,-7.8 -0.921411,-10 0.106746,-6.89927 1.567643,-1.21268 3.853529,15 1.163199,8.25 2.555478,16.91896 3.093953,19.26435 C 58.559429,215.10974 59,218.16242 59,219.54808 c 0,1.81927 0.972601,3.09322 3.5,4.58442 2.048608,1.20871 3.5,2.85346 3.5,3.96628 0,1.23455 0.701303,1.90122 2,1.90122 1.666667,0 2,-0.66667 2,-4 0,-4 0,-4 4,-4 l 4,0 0,-13.875 0,-13.875 -3.004808,-0.60096 c -1.652644,-0.33053 -3.340144,-0.62282 -3.75,-0.64954 C 70.835337,192.9728 70.275,195.09946 70,197.72546 c -0.480844,4.59162 -0.551714,4.68371 -1.849827,2.40375 -0.813798,-1.42932 -1.567169,-7.08813 -1.89714,-14.25 C 65.716104,174.22538 65.746456,174 67.85286,174 69.810476,174 70,173.47039 70,168 l 0,-6 4.185549,0 c 2.73374,0 4.901629,-0.66286 6.25,-1.91103 1.135448,-1.05107 3.414451,-2.06357 5.064451,-2.25 l 3,-0.33897 -0.02567,7 c -0.01412,3.85 -0.77341,12.175 -1.687314,18.5 -2.301159,15.926 -4.06047,32.10615 -4.458038,41 -1.434912,32.09986 -1.425901,32 -2.887776,32 C 78.460781,256 78,257.11902 78,259.5 c 0,2.3133 0.469043,3.5 1.383369,3.5 2.169879,0 2.546076,2.69723 4.563413,32.71846 1.042909,15.52015 2.183084,28.68265 2.533725,29.25 0.769315,1.24478 3.515449,1.32035 5.365829,0.14767 z M 26.157895,136 c 0,-1.375 0.226973,-1.9375 0.504386,-1.25 0.277412,0.6875 0.277412,1.8125 0,2.5 -0.277413,0.6875 -0.504386,0.125 -0.504386,-1.25 z M 21.34281,63.5 c 0.0036,-4.4 0.179441,-6.075605 0.390687,-3.723567 0.211245,2.352038 0.208273,5.952038 -0.0066,8 C 21.512015,69.824395 21.339178,67.9 21.34281,63.5 z M 78,244 c 0,-1.33333 -0.666667,-2 -2,-2 -1.333333,0 -2,0.66667 -2,2 0,1.33333 0.666667,2 2,2 1.333333,0 2,-0.66667 2,-2 z"
         id="path6315"
         inkscape:connector-curvature="0" />
      <path
         style="fill:#e4e4e4"
         d="M 44,407.86465 C 19.604879,406.09392 14.284088,404.40872 10.21191,397.16325 7.2305062,391.85856 7.3622111,385.89402 10.612978,379 c 4.109819,-8.71584 10.959196,-26.81488 13.24535,-35 8.352058,-29.90287 10.25553,-64.94648 5.241612,-96.5 -1.048754,-6.6 -2.201728,-14.25 -2.562165,-17 C 25.530514,222.81499 21.247088,200.45684 16.90949,180.24336 5.7997976,128.47151 2.0100047,92.526002 2.004059,38.86803 L 2,2.2360598 46.25,1.5501832 C 70.5875,1.1729511 103.1,1.0073377 118.5,1.1821533 L 146.5,1.5 l 0.7991,7 c 1.19524,10.470052 -0.13046,80.663256 -1.83124,96.96073 -2.86016,27.40708 -8.63348,64.2279 -13.48162,85.98243 -6.27658,28.16425 -10.96699,66.03859 -10.96699,88.55684 0,36.1717 5.76367,63.58393 19.56697,93.06128 6.17888,13.19517 6.78159,17.61326 3.13998,23.01704 -2.7743,4.11679 -7.74274,7.57977 -12.84676,8.95414 -12.15353,3.27261 -59.53301,4.81713 -86.87944,2.83219 z m 80.74934,-8.54665 c 8.80794,-2.44897 9.95021,-4.9902 5.88894,-13.10124 -1.29895,-2.59422 -3.15426,-7.19176 -4.12292,-10.21676 -0.96866,-3.025 -2.10758,-5.87919 -2.53092,-6.34264 -1.00862,-1.10417 -5.21716,1.15707 -4.45343,2.39281 0.32286,0.52241 0.14797,0.94983 -0.38866,0.94983 -0.53663,0 -1.13979,-0.49233 -1.34037,-1.09406 -0.24196,-0.72589 -1.97841,-0.85207 -5.15997,-0.37496 l -4.79529,0.71909 0.65641,5.12497 c 0.36103,2.81873 1.03462,6.69996 1.49687,8.62496 0.46225,1.925 1.1528,5.975 1.53456,9 0.38176,3.025 0.8851,5.82276 1.11854,6.21725 0.49005,0.82811 4.61827,0.17993 12.09624,-1.89925 z M 27.793101,395.75 c 0.322923,-4.80287 1.123779,-8.47463 3.502401,-16.05782 1.846453,-5.88661 1.93711,-6.93325 0.669955,-7.73469 -2.563568,-1.62139 -4.772284,-1.0377 -6.782958,1.79251 C 22.701481,377.24226 18,388.3683 18,390.74736 c 0,3.59593 4.533477,7.94459 8.537292,8.18925 0.570511,0.0349 1.135625,-1.39911 1.255809,-3.18661 z m 43.825579,-1.94203 c 0.405192,-0.65561 1.044043,-5.04311 1.419669,-9.75 0.529341,-6.63307 0.346606,-9.26516 -0.812426,-11.70211 -1.175431,-2.47141 -1.260935,-3.81667 -0.399629,-6.28741 0.74297,-2.13129 0.777793,-3.97958 0.108162,-5.74084 -0.75364,-1.98223 -0.600322,-3.18862 0.647204,-5.09258 1.06246,-1.62152 2.034527,-6.73819 2.776568,-14.61502 C 76.262528,331.02079 76.811979,328.5 78,328.5 c 0.839783,0 1.65441,1.10036 1.850815,2.5 0.444796,3.16973 1.722909,3.96559 6.399185,3.98469 2.0625,0.008 3.75,0.46531 3.75,1.01531 0,0.55 0.9,1 2,1 1.609756,0 2,-0.66667 2,-3.41667 0,-1.87916 -0.519014,-3.58967 -1.153363,-3.80112 -0.796508,-0.2655 -0.63445,-1.17641 0.523774,-2.94409 1.560165,-2.38111 1.567752,-3.7587 0.108772,-19.75153 l -1.568367,-17.19189 2.550471,-3.19735 c 1.40276,-1.75854 3.41939,-4.09735 4.481401,-5.19735 1.079292,-1.11789 2.069062,-3.76421 2.244122,-6 0.27206,-3.47467 0.60869,-3.96872 2.56319,-3.76179 1.73153,0.18332 2.25249,-0.27754 2.26082,-2 0.006,-1.23102 0.68096,-4.44723 1.5,-7.14714 0.81905,-2.69991 1.48918,-6.65976 1.48918,-8.79966 0,-2.1399 0.63826,-5.125 1.41836,-6.63354 0.78011,-1.50855 1.94457,-5.64871 2.58771,-9.20034 0.64314,-3.55164 1.63298,-7.01763 2.19966,-7.7022 0.56667,-0.68457 0.80195,-2.11796 0.52283,-3.18531 -0.27912,-1.06735 0.13487,-2.85772 0.91996,-3.97861 1.0062,-1.43654 1.24414,-3.44762 0.80627,-6.81469 -0.6449,-4.95901 2.7891,-33.15781 4.62638,-37.9902 1.19352,-3.13921 6.19137,-26.15325 6.14285,-28.28652 -0.0188,-0.825 0.57175,-3.3 1.31226,-5.5 0.74051,-2.2 1.62793,-6.7 1.97205,-10 0.34411,-3.3 1.02568,-7.575 1.51459,-9.5 0.94543,-3.72245 1.84006,-13.0276 2.35553,-24.5 0.17298,-3.85 0.6715,-11.275 1.10782,-16.5 C 137.39561,73.110392 137.74589,26.136385 137,15.105604 L 136.5,7.7112073 132,6.331693 C 128.72617,5.328073 118.23558,4.8053254 93.5,4.4132338 74.8,4.1168141 57.025,3.8254093 54,3.7656676 41.388247,3.5165942 22.038914,5.3924805 13.5,7.6920766 L 10.5,8.5 10.037136,24 c -1.2655108,42.378401 0.18662,83.5417 3.280792,93 0.629741,1.925 1.216753,6.2 1.304472,9.5 0.205558,7.73308 0.977396,12.47674 3.335544,20.5 2.420424,8.23514 3.462944,13.09124 3.220238,15 -0.104902,0.825 0.972998,4.65 2.395333,8.5 1.422335,3.85 3.426768,10.15 4.454296,14 1.027529,3.85 2.843472,10.6 4.035429,15 2.730705,10.08014 3.792199,15.19664 4.979154,24 0.519095,3.85 2.094189,12.175 3.500207,18.5 4.113207,18.50333 4.765007,22.20794 4.863858,27.64452 0.06136,3.37466 0.69089,5.80475 1.829887,7.06365 1.150873,1.27203 1.401097,2.25439 0.742095,2.91339 -0.659003,0.659 -0.63275,6.1405 0.07786,16.25652 0.780957,11.11749 0.77141,15.62459 -0.03515,16.59644 -0.608995,0.7338 -0.846803,2.38972 -0.528462,3.67983 0.318341,1.29011 0.121636,7.50707 -0.437121,13.81547 -1.095341,12.36647 -0.588346,14.46851 2.955829,12.25514 2.875578,-1.79583 2.987191,-1.66485 3.003922,3.52504 0.02562,7.94639 3.085056,9.85898 4.416637,2.76105 1.839437,-9.80505 4.235783,3.32894 3.190926,17.48895 -0.182629,2.475 -1.030712,5.85 -1.88463,7.5 -1.655452,3.19878 -3.37815,18.6556 -2.277664,20.43622 0.920362,1.48918 14.228059,1.37659 15.158098,-0.12825 z M 81,328 c 0,-1.1 0.45,-2 1,-2 0.55,0 1,0.9 1,2 0,1.1 -0.45,2 -1,2 -0.55,0 -1,-0.9 -1,-2 z m -1.436111,-7.9294 c -1.036729,-1.14558 -1.667369,-2.30045 -1.401424,-2.5664 0.866716,-0.86671 4.12426,2.13562 3.699559,3.40973 -0.280239,0.84071 -1.019649,0.56938 -2.298135,-0.84333 z M 76,299.5 c 0,-2.475 0.195705,-4.5 0.4349,-4.5 0.239196,0 1.589196,0.43886 3,0.97525 2.08385,0.79228 2.5651,1.63654 2.5651,4.5 C 82,303.72497 81.765917,304 79,304 c -2.888889,0 -3,-0.16667 -3,-4.5 z"
         id="path6313"
         inkscape:connector-curvature="0" />
      <path
         style="fill:#dbdbdb"
         d="M 41,407.47181 C 32.475,406.7826 23.581592,405.70056 21.23687,405.06727 12.746808,402.77419 7.1793244,395.07759 8.2640614,387.13341 8.5369292,385.13503 10.783346,379 13.256099,373.5 19.540786,359.52134 25.481439,341.39818 28.54493,326.85834 30.748445,316.40009 31.230692,311.04063 31.681502,292 32.000752,278.51601 31.78124,265.89359 31.133697,260.5 28.552435,238.99983 24.673618,216.22436 18.105223,184 5.4441388,121.88507 2.9267758,99.582639 2.2746559,43.75 L 1.7870199,2 24.14351,2.1211059 46.5,2.2422117 32,3.5824516 C 24.025,4.3195836 16.718606,5.3900859 15.763569,5.9613458 14.808532,6.5326056 13.176132,7 12.136014,7 11.095895,7 9.7584168,7.5861637 9.1638391,8.302586 7.3710249,10.462795 6.6139062,52.014995 7.9212204,76.5 c 2.3209446,43.46954 6.5697476,71.16112 18.1050956,118 14.246605,57.84784 16.369144,71.75909 16.40205,107.5 0.0202,21.93952 -0.22201,25.6496 -2.317588,35.5 -3.644108,17.12936 -3.715813,17.9514 -1.488391,17.06323 1.032687,-0.41178 4.509917,-0.99853 7.727178,-1.30388 4.394125,-0.41705 6.066012,-0.20737 6.719488,0.84273 0.724187,1.16373 1.223214,1.17889 2.978795,0.0905 3.233103,-2.00439 5.303167,0.17926 4.504648,4.75182 -0.341508,1.95557 -0.588014,5.6075 -0.547792,8.11538 0.05424,3.38188 -0.453572,5.03645 -1.965786,6.40499 C 56.917513,374.47964 56,376.42585 56,377.78969 c 0,1.36384 -0.527337,5.34168 -1.17186,8.83963 -0.936314,5.08156 -0.91011,6.849 0.130368,8.79315 0.716226,1.33828 1.080966,3.5907 0.810532,5.00538 C 55.301679,402.8727 55.493193,403 59.638672,403 62.037402,403 64,402.55 64,402 c 0,-1.44435 2.756083,-1.23228 3.249053,0.25 0.29812,0.8964 3.221246,1.22457 10.333333,1.16009 21.258709,-0.19273 23.340994,-0.41147 25.448204,-2.6733 2.26782,-2.43422 2.32463,-3.30801 0.95975,-14.76302 -1.68135,-14.11109 0.18333,-12.68037 -15.859225,-12.16838 l -13.921412,0.44429 -1.675923,-2.55778 c -1.326024,-2.02377 -1.440705,-2.9973 -0.549289,-4.66292 0.633292,-1.18332 0.877541,-3.9495 0.557786,-6.31706 -0.443704,-3.28531 -0.142119,-4.7113 1.370854,-6.48183 1.889023,-2.21061 2.449476,-2.27195 21.450636,-2.34774 10.731013,-0.0428 19.989123,0.21772 20.573583,0.57893 1.30507,0.80658 1.30507,0.82234 -1.7e-4,-3.46788 -2.68501,-8.82541 -4.02377,-21.11303 -4.57526,-41.9934 -0.6423,-24.31872 0.79732,-45.03637 4.7599,-68.5 1.11463,-6.6 2.87649,-17.625 3.91526,-24.5 2.26342,-14.98019 4.99784,-28.4762 8.91482,-44 6.40458,-25.38261 9.19974,-44.715 11.51448,-79.638318 1.54668,-23.335411 1.83267,-54.549193 0.66616,-72.70886 L 140.5,7.8056431 136.5,6.2795279 C 130.63925,4.0434816 113.59085,2.8946962 87.25,2.9608759 72.230027,2.9986126 64,2.6618962 64,2.009645 c 0,-1.3309344 79.89934,-1.35937347 82,-0.029187 2.20738,1.3977627 1.87151,76.682453 -0.44399,99.519542 -2.93335,28.93072 -8.60125,65.65194 -13.62914,88.30063 -5.55837,25.03831 -10.48182,61.07958 -11.43381,83.69937 -0.74868,17.78896 0.94317,38.27386 4.62504,56 2.52462,12.15463 10.54389,34.8672 16.49926,46.73002 2.41045,4.80151 4.38264,10.1335 4.38264,11.84887 0,7.68901 -6.87507,14.87074 -16.13734,16.85714 C 112.1227,408.74057 71.154263,409.90964 41,407.47181 z m 80.64466,-6.55944 c 3.77044,-1.1482 7.86784,-2.73358 9.10534,-3.52306 3.09224,-1.97273 2.90593,-6.12527 -0.59079,-13.16783 -1.56243,-3.14681 -3.42091,-7.85898 -4.12996,-10.47148 -0.70904,-2.6125 -1.79319,-4.74115 -2.40921,-4.73033 -2.27363,0.0399 -16.76373,2.79069 -17.24719,3.27415 -0.27515,0.27514 0.4343,5.83409 1.57654,12.35322 1.14225,6.51913 2.31631,13.31546 2.60902,15.10296 0.64264,3.9243 1.66475,4.03147 11.08625,1.16237 z M 31.426352,397.75 c 0.255451,-1.2375 0.753859,-4.5 1.107573,-7.25 0.671625,-5.22164 2.973283,-14.89363 3.901769,-16.39595 0.505601,-0.81808 -2.281928,-2.23047 -6.993024,-3.54324 -2.484909,-0.69243 -4.87091,2.24881 -8.769332,10.81003 -4.071135,8.94051 -3.219728,14.61924 2.569048,17.13509 4.919557,2.13808 7.63841,1.88695 8.183966,-0.75593 z M 52.47513,385.10148 c 1.733411,-7.07333 1.757532,-11.01933 0.06963,-11.39109 -1.049124,-0.23107 -1.974169,3.7205 -2.935471,12.53961 -0.862697,7.9145 0.809014,7.24454 2.865839,-1.14852 z m 36.215346,10.25566 C 87.608706,394.27537 87.882446,386 89,386 c 0.55,0 1,1.035 1,2.3 0,1.265 0.543214,2.84321 1.207143,3.50714 0.942857,0.94286 0.875091,1.5392 -0.309524,2.72381 -0.834167,0.83417 -1.827381,1.20595 -2.207143,0.82619 z"
         id="path6311"
         inkscape:connector-curvature="0" />
      <path
         style="fill:#d3d3d3"
         d="M 43,407.55578 C 35.025,406.83892 26.7,405.90977 24.5,405.491 14.940046,403.67125 9.679851,398.71638 8.4251058,390.34914 7.8878474,386.76644 8.4028959,384.80873 11.853813,377.31656 23.957557,351.03853 30.658516,326.43039 32.090697,303 32.959106,288.79289 31.982134,257.91983 30.465297,251.63611 30.181694,250.46125 28.873781,242.3 27.558823,233.5 26.243865,224.7 22.206861,203.1 18.587702,185.5 6.258549,125.54322 2.9990832,97.000117 2.2879563,42.76333 1.8419131,8.7441559 1.9743638,2.9470679 3.2084906,2.4734891 5.2035245,1.7079227 23.858451,2.3514318 22,3.1217096 21.175,3.4636499 17.801276,4.5936166 14.502835,5.6327467 L 8.5056691,7.5220743 7.6861751,13.511037 C 7.2354535,16.804967 7.1000597,35.7 7.3853,55.5 c 0.6109822,42.411415 2.1258137,59.6849 8.242019,93.983 2.424323,13.59499 4.306669,21.97741 15.722915,70.017 8.384666,35.28269 10.954749,55.07271 10.973815,84.5 0.01235,19.06629 -2.162756,36.62279 -5.822312,46.99508 -0.8377,2.37429 -1.403416,4.43657 -1.257145,4.58284 0.14627,0.14628 3.990408,-0.0541 8.542528,-0.44532 4.55212,-0.39119 8.800502,-0.38746 9.440849,0.008 0.640347,0.39576 2.004779,0.26973 3.032071,-0.28006 1.301501,-0.69654 2.303212,-0.63826 3.303882,0.19222 1.66893,1.38509 1.917395,5.53145 0.388102,6.4766 -0.633439,0.39149 -0.797736,2.31641 -0.415353,4.86632 0.486762,3.24597 0.253786,4.53305 -1.010454,5.58227 -2.757498,2.28852 -13.914334,2.31094 -22.175357,0.0446 C 32.295614,370.91026 28.320566,370 27.517422,370 c -1.85638,0 -9.619174,15.87401 -9.733768,19.90442 -0.04671,1.64276 0.643541,4.09862 1.533885,5.45745 2.09354,3.19515 11.962964,6.95317 16.682461,6.35225 1.925,-0.2451 6.747714,0.15855 10.717143,0.897 17.152972,3.19106 58.242107,2.53267 60.806487,-0.97433 1.08339,-1.48162 1.31389,-1.50259 1.82672,-0.16618 1.14529,2.98458 14.67564,0.65266 21.71284,-3.74215 2.75952,-1.72334 2.54048,-7.82377 -0.46858,-13.05039 -1.32296,-2.29794 -3.20514,-6.76557 -4.18262,-9.92807 -2.03727,-6.59129 -1.4525,-6.41858 -14.031,-4.14416 -5.28855,0.95627 -15.150875,1.66416 -24.38099,1.75 L 72.5,372.5 72.177742,369.68953 c -0.177241,-1.54576 0.215021,-3.45785 0.871695,-4.2491 0.925629,-1.11531 0.923049,-2.09264 -0.01148,-4.3488 -0.868472,-2.09667 -0.908728,-3.46458 -0.14401,-4.89346 0.966439,-1.80581 2.54172,-2.04859 17.603113,-2.71296 9.097928,-0.40131 19.04144,-0.52236 22.0967,-0.26899 5.26373,0.43651 5.52143,0.35116 4.91463,-1.62778 -4.52893,-14.77001 -5.66608,-25.32039 -5.66816,-52.58844 -0.002,-23.89283 1.31046,-39.14179 5.6798,-66 1.38687,-8.525 2.76934,-17.3 3.07217,-19.5 1.19002,-8.6454 4.56779,-25.2506 7.49254,-36.83357 8.42835,-33.37899 11.94029,-59.679 13.90309,-104.116487 0.88126,-19.95142 0.57736,-54.538683 -0.54547,-62.082405 C 140.99224,7.4434423 140.41229,7.0262455 132,3.6750532 130.625,3.1272961 120.05,2.3889221 108.5,2.034222 L 87.5,1.3893126 116,1.2099691 c 15.675,-0.098639 29.05422,0.172707 29.7316,0.6029911 3.4294,2.1784082 2.2421,77.8662428 -1.75201,111.6870398 -2.92987,24.80918 -8.48624,59.5415 -11.87287,74.21612 -2.7028,11.71156 -5.22699,26.52519 -9.76096,57.28388 -3.2765,22.22801 -2.0944,65.79157 2.32006,85.5 2.29261,10.23542 10.81673,33.50834 16.44401,44.89614 2.68959,5.44287 4.89017,10.92608 4.89017,12.1849 0,5.91602 -5.27853,12.94814 -11.83698,15.76937 C 123.79819,407.80902 72.26424,410.18629 43,407.55578 z M 55,363.5 c 0,-0.825 -0.45,-1.5 -1,-1.5 -0.55,0 -1,0.675 -1,1.5 0,0.825 0.45,1.5 1,1.5 0.55,0 1,-0.675 1,-1.5 z"
         id="path6309"
         inkscape:connector-curvature="0" />
      <path
         style="fill:#cbcbcb"
         d="m 47,407.90427 c -29.434339,-2.43906 -36.32291,-5.51313 -38.4140297,-17.14252 -0.5328424,-2.96331 -0.022249,-5.24361 2.4630617,-11 C 21.915296,354.59369 29.600053,331.8539 32.073491,317.54876 33.936399,306.77462 32.728679,262.68198 30.168517,248 29.065598,241.675 27.856524,233.8 27.481687,230.5 27.10685,227.2 26.360678,222.475 25.823528,220 20.149129,193.85437 11.492394,148.05574 9.0667154,131.34776 3.6675738,94.158693 2.6596087,79.894675 2.576304,39.5 L 2.5,2.5 9.8485999,2.2042003 C 18.026947,1.8750012 19.195188,3.2593847 12.640589,5.512749 10.556415,6.229254 8.5837166,7.0829501 8.2568152,7.4098514 6.6676045,8.9990622 5.9244099,45.071889 6.9787801,69.442515 8.9967336,116.08532 13.373665,147.46434 23.515881,188 c 6.916869,27.64483 13.353469,56.83548 14.883893,67.5 5.309394,36.99768 4.811766,69.55128 -1.410344,92.26116 C 35.895244,351.75479 35,355.21883 35,355.45901 c 0,0.24018 5.728808,0.34766 12.730684,0.23884 11.613737,-0.18049 12.762004,-0.0378 13.087653,1.62655 0.196333,1.00343 -0.398198,2.65886 -1.321181,3.67874 -1.453427,1.60602 -1.508407,2.32375 -0.41057,5.35976 0.958159,2.64975 0.987116,3.84337 0.118627,4.88983 -1.663817,2.00478 -14.127448,2.06179 -23.392419,0.107 -4.227963,-0.89205 -8.339315,-1.37166 -9.136338,-1.06582 -1.593188,0.61137 -8.503451,14.48387 -9.271658,18.61305 -0.725678,3.90059 2.857777,8.84802 8.007543,11.05547 7.89367,3.38362 30.748818,5.27823 57.410751,4.75916 31.466258,-0.61261 34.478288,-0.91807 42.605458,-4.32075 9.2234,-3.86165 9.83711,-5.81928 5.12537,-16.34909 -1.85853,-4.15346 -3.94832,-9.49299 -4.64396,-11.86563 -1.05605,-3.60185 -1.6069,-4.23182 -3.33739,-3.81671 -8.44948,2.02683 -23.240504,3.66932 -34.943936,3.8804 -12.212069,0.22026 -14.003952,0.0437 -14.979766,-1.47584 -0.853941,-1.32978 -0.701958,-2.41409 0.662027,-4.72313 1.661236,-2.81225 1.667278,-3.15452 0.09797,-5.54959 -1.57181,-2.39889 -1.56493,-2.67132 0.114327,-4.52687 C 75.196512,354.12538 76.672809,354 96.771565,354 l 21.461585,0 -0.50067,-2.25 c -0.27538,-1.2375 -1.21199,-4.95 -2.08136,-8.25 -5.59893,-21.25267 -4.81675,-66.79731 1.85478,-108 1.33584,-8.25 3.12796,-19.5 3.98249,-25 1.91273,-12.31087 4.47186,-24.34741 8.47924,-39.88099 3.46373,-13.42631 7.37395,-35.24505 8.98201,-50.11901 3.38001,-31.263774 4.69072,-73.236779 3.1688,-101.474571 C 141.55741,8.6160623 141.30103,7.4520412 139.35665,6.4863871 138.17781,5.9009282 136.42374,4.7644852 135.45871,3.9609582 134.26235,2.9648148 130.17191,2.3203549 122.60206,1.935358 L 111.5,1.370716 127,1.1990127 c 8.525,-0.094437 16.46581,0.087426 17.64624,0.4041389 2.05399,0.5510925 2.17566,1.3133979 2.83084,17.7363454 0.73771,18.491871 -0.75756,67.881744 -2.54796,84.160503 -3.20243,29.11735 -9.59657,69.97106 -13.47054,86.0666 -2.49739,10.37609 -7.18353,38.82932 -9.87081,59.9334 -0.84041,6.6 -1.65093,20.1 -1.80116,30 -0.2932,19.3225 1.4919,49.41255 2.98991,50.39863 0.50246,0.33075 2.07429,4.20137 3.49295,8.60137 3.95551,12.2681 9.33235,25.91328 14.82185,37.61443 4.62855,9.86598 4.91265,10.91274 4.0291,14.84515 -2.00597,8.92792 -7.81722,12.40463 -25.22515,15.09151 C 104.20809,408.47238 65.677078,409.45194 47,407.90427 z M 56,363.5 c 0,-0.83333 -0.888889,-1.5 -2,-1.5 -1.111111,0 -2,0.66667 -2,1.5 0,0.83333 0.888889,1.5 2,1.5 1.111111,0 2,-0.66667 2,-1.5 z"
         id="path6307"
         inkscape:connector-curvature="0" />
      <path
         style="fill:#c3c3c3"
         d="m 49,407.95761 c -16.933044,-1.46326 -30.253603,-3.81099 -33,-5.8162 -1.375,-1.00392 -3.545439,-3.35893 -4.823197,-5.23336 -3.5879682,-5.26343 -2.674938,-11.7544 3.7146,-26.40805 2.877845,-6.6 5.6075,-12.70601 6.0659,-13.56891 0.458399,-0.86289 2.948235,-7.83789 5.532968,-15.5 6.97277,-20.66986 8.27106,-32.78589 6.676925,-62.31104 -0.671722,-12.44103 -1.636493,-24.7091 -2.143936,-27.26238 -0.507443,-2.55328 -1.653208,-9.75328 -2.546144,-16 C 27.58418,229.61095 23.741373,208.975 19.937547,190 6.089655,120.92121 2,84.679923 2,31.042893 2,8.8775693 2.2501704,4.0372664 3.4471253,3.0438821 5.1214419,1.6543227 16.331108,2.6552394 15.429662,4.1138089 15.128429,4.601214 13.853268,5 12.595971,5 7.4739639,5 7.0355793,6.867699 6.3556055,31.586521 5.3627293,67.680164 8.337132,111.80707 14.000314,145 c 2.210924,12.95862 7.707901,38.02298 11.952637,54.5 11.414241,44.30726 16.062627,74.8688 16.038844,105.44989 -0.01266,16.27441 -2.829245,36.73885 -6.539103,47.51106 -0.750265,2.17853 -1.271548,4.02478 -1.158405,4.10279 0.113142,0.078 5.605713,-0.15869 12.205713,-0.526 9.340111,-0.5198 12.328729,-0.37218 13.483049,0.66598 2.166222,1.94823 0.0286,4.79528 -3.604023,4.80011 -1.583464,0.002 -3.463377,0.37967 -4.177584,0.83903 -1.954073,1.25681 0.563484,3.86652 2.987729,3.0971 C 57.298204,364.77058 60,366.51777 60,368.55102 c 0,3.32814 -2.718487,4.1968 -12.027395,3.84322 -5.02866,-0.19101 -10.792174,-0.80534 -12.807811,-1.36519 -2.015637,-0.55984 -5.020938,-1.02041 -6.678448,-1.02347 -2.795052,-0.005 -3.288292,0.58372 -6.799804,8.11844 -2.082383,4.46821 -4.032524,9.35589 -4.333646,10.8615 -1.634082,8.17041 7.652867,13.27847 27.147104,14.93159 23.310044,1.9767 34.201962,2.20564 53,1.11403 19.70231,-1.14412 27.2226,-2.76388 33.75,-7.26922 3.63653,-2.51001 3.50781,-5.01766 -0.70923,-13.81715 -1.90257,-3.97 -3.75367,-9.18167 -4.11354,-11.58148 -0.7535,-5.02468 -0.42263,-4.94636 -12.14034,-2.87363 -4.5172,0.79904 -15.237103,1.94396 -23.821993,2.54426 C 74.078696,373.17974 72,372.84186 72,369.03254 c 0,-3.52454 3.26596,-5.02883 11.078741,-5.10283 4.081692,-0.0387 8.321259,-0.49332 9.421259,-1.01038 1.354076,-0.63648 -0.981575,-0.81614 -7.231974,-0.55629 -10.264238,0.42672 -12.672949,-0.45203 -12.112996,-4.41907 0.318166,-2.25407 0.888874,-2.49259 7.34497,-3.06976 3.85,-0.34418 14.000299,-0.68168 22.55622,-0.75 L 118.61244,354 l -2.20056,-8.75 c -4.46101,-17.73818 -5.64537,-49.64688 -2.87138,-77.3599 2.94584,-29.42983 9.43504,-67.65478 16.02398,-94.3901 9.8418,-39.93411 13.87376,-80.797118 13.26341,-134.421625 C 142.53066,12.964723 142.22897,7.5763225 141.04194,7.1806473 140.25637,6.9187913 138.57401,5.6649237 137.30337,4.3942748 135.36696,2.45787 133.73949,2.0288601 127.24655,1.7432463 120.74554,1.4572779 121.29839,1.370131 130.6849,1.2012442 147.47238,0.8991956 146.56153,0.023708 147.29317,17.164661 c 0.7211,16.894065 -0.76425,70.018672 -2.35799,84.335339 -3.47481,31.21434 -9.66059,71.18599 -13.46475,87.00741 -2.4303,10.10753 -5.49778,28.10567 -9.62821,56.49259 -1.95531,13.43814 -2.2473,19.42418 -2.19504,45 0.0485,23.76137 0.40216,31.30714 1.81775,38.78977 0.96661,5.10937 2.35964,9.89194 3.09562,10.62792 1.43046,1.43046 5.62934,10.67857 10.02593,22.08231 1.48433,3.85 4.4346,10.47751 6.55615,14.7278 6.18562,12.39219 4.73564,20.26015 -4.69303,25.46567 -9.49102,5.23994 -58.596693,8.75745 -87.4496,6.26414 z"
         id="path6305"
         inkscape:connector-curvature="0" />
      <path
         style="fill:#bbbbbb"
         d="M 49.806501,407.96921 C 34.32814,406.67072 19.998777,404.18414 16.63288,402.2126 12.188151,399.60914 9.7712683,395.67494 9.243708,390.18452 8.827641,385.85443 9.356615,383.93307 13.383343,375.14844 15.922504,369.60906 18,364.80668 18,364.47649 c 0,-0.33019 1.053931,-2.93497 2.342069,-5.78842 4.007156,-8.87651 9.57183,-24.87084 11.19873,-32.18807 2.111523,-9.4969 2.923378,-37.73932 1.595399,-55.5 C 31.750508,252.46748 29.471815,238.34137 20.311999,191.5 12.490365,151.50181 7.1806503,117.49142 4.4657823,90 2.2750093,67.815693 1.2095456,5.6573655 2.9834174,3.5199808 4.3993404,1.813898 7.742407,1.551623 9.9866009,2.9705572 11.254376,3.772132 11.158685,4.203506 9.336521,5.9011099 6.3262112,8.70564 5.5652514,22.066847 6.3123837,59 c 1.068291,52.80905 5.4775143,86.08852 17.6875223,133.5 5.695308,22.11489 12.934271,55.27903 14.411988,66.02619 2.775759,20.18758 3.951968,46.90208 2.690918,61.11713 -0.964378,10.87084 -3.994171,26.97321 -6.574424,34.94093 -0.661945,2.04405 -0.419805,2.08262 12.558134,2 8.015457,-0.051 13.360816,0.31004 13.557029,0.91575 0.673804,2.08004 -1.565881,3.78016 -5.286506,4.01293 C 53.23567,361.64564 49.25,362.12914 46.5,362.58736 l -5,0.83313 5,0.84431 c 2.75,0.46437 6.497238,0.93777 8.327195,1.052 3.810593,0.23787 6.027425,2.94852 4.206115,5.14306 -1.943396,2.34165 -17.948861,1.82439 -30.75186,-0.99383 -1.72598,-0.37992 -2.606194,0.23571 -3.964516,2.77281 C 21.182591,378.09324 17,388.40089 17,390.27081 c 0,3.93663 2.952724,7.47267 8.389498,10.04686 7.211319,3.4144 28.330255,5.69112 52.489794,5.65865 26.486308,-0.0356 39.364908,-1.27649 46.620708,-4.49204 10.94245,-4.84935 11.4445,-6.42592 5.9333,-18.632 -4.84089,-10.7215 -5.33131,-14.09236 -2.28218,-15.68627 1.54106,-0.80559 1.66105,-1.00012 0.34888,-0.56564 -6.75705,2.23737 -26.61764,4.55126 -40.476987,4.71584 -13.59352,0.16142 -15.51629,-0.0144 -15.799949,-1.44483 -0.609575,-3.07395 2.56401,-4.87146 8.598365,-4.8701 3.123214,7e-4 9.503571,-0.53824 14.178571,-1.19764 7.7554,-1.09389 8.1934,-1.27012 5,-2.01172 -1.925,-0.44704 -8.246515,-0.53986 -14.04781,-0.20627 -8.813157,0.50678 -10.759098,0.35194 -11.832576,-0.94152 -0.706621,-0.85143 -1.12995,-2.35717 -0.940732,-3.34609 0.300523,-1.57064 1.986701,-1.89788 13.332575,-2.58744 7.143699,-0.43417 17.376043,-0.64327 22.738543,-0.46466 5.3625,0.17862 9.74513,0.0838 9.73918,-0.21059 -0.006,-0.29444 -0.70132,-2.78535 -1.54525,-5.53535 -4.34821,-14.16883 -6.46398,-47.57881 -4.52794,-71.5 2.35991,-29.1583 9.94918,-75.56797 16.96669,-103.75413 10.19814,-40.96128 14.84772,-92.13812 13.22006,-145.50998 L 142.5,7.971779 l -3,-2.4499266 c -1.65,-1.3474596 -2.55,-2.5394584 -2,-2.6488861 0.55,-0.1094278 -1.475,-0.5333482 -4.5,-0.9420453 -4.6957,-0.63442 -4.21724,-0.7097491 3.27188,-0.5151204 4.82454,0.1253809 9.26768,0.7237598 9.87365,1.3297308 0.7853,0.7853012 0.94464,13.4029426 0.55473,43.9281166 -0.58588,45.867244 -0.98319,51.083155 -7.21691,94.742852 -3.29315,23.06457 -4.5585,30.08624 -10.3769,57.5835 -3.95453,18.68875 -9.03868,56.59789 -10.05857,75 -1.50111,27.0847 0.42153,52.48727 5.05208,66.75 0.58033,1.7875 1.40363,3.25 1.82955,3.25 0.81411,0 5.0841,9.03591 9.45116,20 1.42394,3.575 4.17081,9.59168 6.10416,13.37039 5.71308,11.16621 4.47961,17.72046 -4.46548,23.72806 -2.78888,1.87303 -5.97186,2.96096 -9.8226,3.35732 -3.13321,0.32251 -9.52175,1.28439 -14.19675,2.13751 -10.26255,1.87278 -47.584365,2.6854 -63.193499,1.37593 z"
         id="path6303"
         inkscape:connector-curvature="0" />
      <path
         style="fill:#b3b3b3"
         d="m 55.5,408.28279 c -3.3,-0.18648 -12.75,-1.25109 -21,-2.36581 -16.775291,-2.26663 -20.90635,-4.03884 -23.843713,-10.22887 -2.6476411,-5.57949 -2.0558462,-9.89328 2.814996,-20.51941 2.459206,-5.36495 5.172456,-11.7418 6.029444,-14.17076 0.856989,-2.42897 1.933295,-4.65967 2.391791,-4.95712 0.458497,-0.29745 2.673081,-5.94082 4.921299,-12.54082 7.077243,-20.77637 9.180064,-39.93261 7.244958,-66 -0.653265,-8.8 -1.580404,-18.7 -2.060308,-22 -2.478907,-17.04591 -4.270428,-27.96824 -6.068875,-37 -9.35987,-47.00505 -14.258789,-74.01241 -13.719001,-75.63177 0.208585,-0.62576 1.155235,3.3104 2.103668,8.74702 0.948433,5.43661 4.624656,21.58475 8.169385,35.88475 16.701551,67.37672 17.869012,74.78971 17.953712,114 0.06104,28.25933 -0.0065,29.28094 -2.645343,40 -1.489393,6.05 -2.995906,11.98011 -3.347807,13.17801 -0.638399,2.17318 -0.610751,2.17711 12.457988,1.76879 C 58.950217,356.07038 60,356.18034 60,357.81879 c 0,2.63188 -2.000169,4.25149 -3.957078,3.20418 -0.966033,-0.517 -2.25049,-0.50394 -3.096804,0.0315 -0.795365,0.5032 -3.246118,0.95343 -5.446118,1.00051 -2.2,0.0471 -4.878936,0.42943 -5.953192,0.84968 -1.653959,0.64702 -1.443306,0.86605 1.375,1.42971 1.830506,0.3661 4.595384,0.66564 6.144175,0.66564 1.548791,0 3.09485,0.45122 3.435688,1.0027 0.394199,0.63783 1.254042,0.66322 2.362899,0.0698 2.425333,-1.298 4.375354,0.19442 3.972922,3.04061 -0.311346,2.20199 -0.841064,2.40846 -6.837492,2.66508 -3.575,0.153 -10.927952,-0.44405 -16.339893,-1.32677 -5.411941,-0.88272 -9.963789,-1.4579 -10.115217,-1.27817 -0.151428,0.17972 -2.181272,4.36832 -4.510763,9.30799 -4.418788,9.37001 -4.965256,14.48699 -1.936837,18.13601 5.755284,6.93469 25.241205,9.71637 64.562029,9.21643 17.495641,-0.22244 25.909701,-3.3e-4 25.242741,0.66634 -1.88295,1.88213 -33.163593,2.92641 -53.40206,1.78279 z m 65.5,-3.97432 c 0,-0.48356 2.925,-2.32159 6.5,-4.0845 6.17115,-3.04313 6.5,-3.38428 6.5,-6.74315 0,-1.94582 -1.29891,-6.11252 -2.88646,-9.25934 -1.58756,-3.14681 -3.47268,-7.68034 -4.18916,-10.0745 -1.24533,-4.16137 -1.1953,-4.44029 1.13647,-6.33514 l 2.43915,-1.98211 -2.5,0.63105 c -8.69834,2.19566 -27.60579,4.64602 -40.085937,5.19503 -13.534992,0.59542 -14.636432,0.51007 -15.286745,-1.18462 -1.343135,-3.50016 1.529725,-4.63434 14.012343,-5.53195 6.523186,-0.46908 13.867319,-1.13904 16.320289,-1.48881 3.82105,-0.54484 4.18748,-0.78842 2.55797,-1.70034 -1.08671,-0.60815 -8.356442,-1.1042 -16.959949,-1.15724 -14.643586,-0.0903 -15.066455,-0.1524 -15.366267,-2.25696 -0.198775,-1.39532 0.338734,-2.36947 1.51307,-2.74219 1.00175,-0.31794 11.377983,-0.64899 23.058295,-0.73567 14.693021,-0.10903 21.233591,-0.49661 21.226111,-1.25781 -0.006,-0.60512 -0.70076,-3.35022 -1.54401,-6.10022 -4.76576,-15.54204 -6.29838,-57.57201 -3.08129,-84.5 3.69494,-30.92765 9.8094,-65.81279 15.59941,-89 4.48791,-17.97273 7.54394,-33.17076 8.9481,-44.5 3.54463,-28.59939 5.41629,-69.140968 4.53343,-98.197826 -0.68628,-22.5870115 -0.76644,-23.2556879 -3.04401,-25.3953596 -1.28654,-1.2086437 -2.10148,-2.5821221 -1.81097,-3.0521742 0.95258,-1.5413085 7.15446,-0.9633798 7.80317,0.7271473 1.21886,3.1763026 0.56377,63.2978625 -0.90882,83.4069415 C 143.31681,116.58565 136.19516,166.78135 131.01106,189 c -1.60409,6.875 -4.27945,21.275 -5.94523,32 -8.27334,53.26704 -9.12035,84.23266 -3.08435,112.76047 2.14216,10.12445 3.20012,12.68575 6.53161,15.81294 1.21488,1.14038 3.00276,4.51538 3.97307,7.5 0.9703,2.98463 4.21801,10.60159 7.21712,16.92659 4.65917,9.82601 5.38524,12.13111 4.98801,15.83561 -0.51869,4.83714 -4.69098,10.01043 -10.10003,12.52321 C 130.81249,404.11425 121,405.52184 121,404.30847 z M 11.078947,138.41667 c 0.04798,-1.16495 0.284941,-1.4019 0.604167,-0.60417 0.288871,0.72188 0.253344,1.58437 -0.07895,1.91667 -0.332292,0.33229 -0.568641,-0.25834 -0.52522,-1.3125 z M 9.6319444,128.90972 C 9.284375,127.17188 9.0526063,124.56875 9.1169029,123.125 c 0.064297,-1.44375 0.5204965,-0.1937 1.0137771,2.77789 0.961766,5.7938 0.552338,8.2622 -0.4987356,3.00683 z M 7.6561909,114.99506 C 3.6800728,82.88485 2.0038656,56.785097 2.001664,26.95 1.9999614,3.8771826 2.3004922,1.9792585 5.95,2.0153128 c 0.8525,0.00842 2.2071065,0.4309497 3.0102367,0.9389504 1.2443603,0.7870904 1.1704423,1.2439838 -0.5,3.0905346 C 6.581793,8.1212787 6.5,9.8867531 6.5,48.355847 c 0,26.732111 0.4663735,45.009352 1.3959222,54.706383 1.3433133,14.01342 1.1582933,23.22295 -0.2397313,11.93283 z"
         id="path6301"
         inkscape:connector-curvature="0" />
      <path
         style="fill:#a3a3a3"
         d="m 54.5,407.87511 c -4.95,-0.44076 -11.25,-1.24207 -14,-1.78069 -4.5364,-0.8885 -4.3046,-0.92801 2.5,-0.42605 4.125,0.30428 20.1,0.84088 35.5,1.19244 26.37599,0.60212 27.28039,0.68269 15.592998,1.38919 C 79.679377,409.1213 67.164771,409.0028 54.5,407.87511 z M 23,404.07015 C 15.566791,402.58383 10.503913,397.54314 9.4613506,390.59083 8.8991354,386.84172 9.3528347,384.95719 12.529763,377.84559 18.624587,364.20224 19.72738,361.61246 20.448235,359.25 20.825832,358.0125 21.779451,357 22.567388,357 23.355324,357 24,356.28898 24,355.41996 c 0,-0.86902 1.329437,-5.34662 2.954305,-9.95021 8.81236,-24.9673 10.440565,-64.86416 4.038991,-98.96975 -1.032343,-5.5 -2.169071,-12.7 -2.526061,-16 -0.356991,-3.3 -1.48392,-9.6 -2.504287,-14 -1.020368,-4.4 -2.562524,-12.275 -3.427016,-17.5 -0.864491,-5.225 -2.064441,-11.66179 -2.666556,-14.30398 -0.602116,-2.64218 -0.862266,-5.03646 -0.578112,-5.32062 0.284153,-0.28415 0.966794,1.42764 1.516979,3.80398 0.550185,2.37634 2.574237,10.39562 4.497894,17.82062 12.261623,47.32785 15.054533,65.97065 15.130987,101 0.04999,22.90427 -0.178302,26.61021 -2.242706,36.4065 -1.264099,5.99858 -2.960302,12.49076 -3.76934,14.42706 -0.809037,1.9363 -1.12315,3.81867 -0.698028,4.18305 0.425123,0.36438 4.37295,0.3972 8.77295,0.0729 14.469927,-1.06636 17,-0.85645 17,1.41044 0,1.58459 -0.726964,2.03757 -3.5,2.18089 -5.001226,0.25848 -14.241047,1.38551 -15.971975,1.9482 -2.720171,0.88426 1.085935,2.33902 6.162958,2.3556 2.580041,0.008 4.968021,0.46357 5.306623,1.01144 0.338602,0.54787 2.05266,0.88537 3.809017,0.75 C 58.111859,366.52992 58.5,366.80386 58.5,369 c 0,2.31859 -0.362818,2.50802 -5,2.61057 -4.616813,0.10209 -12.281851,-0.60419 -23.5,-2.16539 -5.064743,-0.70484 -4.906087,-0.88654 -10.525728,12.05482 -3.065304,7.05903 -3.360919,10.49786 -1.187573,13.8148 1.744355,2.66223 10.940181,8.23322 14.783065,8.95585 1.33663,0.25134 0.405236,0.46652 -2.069764,0.47817 -2.475,0.0116 -6.075,-0.29375 -8,-0.67867 z m 100,-0.47469 c 0,-0.2225 2.475,-1.80135 5.5,-3.50855 5.04233,-2.84572 5.5,-3.39786 5.5,-6.6353 0,-1.94221 -0.9555,-5.40421 -2.12332,-7.69334 -1.16783,-2.28914 -2.98546,-6.65871 -4.03918,-9.71017 l -1.91586,-5.5481 2.64757,-2.12399 c 2.83488,-2.27426 1.84513,-4.19945 -1.29854,-2.52584 -3.41055,1.81567 -28.887053,5.14759 -41.27067,5.39754 L 73.5,371.5 l 0,-2.5 c 0,-2.29863 0.40275,-2.52097 5,-2.76031 9.961046,-0.5186 31.93618,-3.27587 32.77234,-4.11203 0.47539,-0.47539 -2.33583,-1.17111 -6.31743,-1.56344 -3.94569,-0.3888 -8.227153,-1.18677 -9.514371,-1.77327 -1.799119,-0.81973 -3.13858,-0.68759 -5.791598,0.57135 C 82.331097,362.83484 70.533425,360.67697 74,356.5 75.03715,355.25031 78.89568,355 97.122445,355 114.7418,355 119,354.73918 119,353.65996 c 0,-0.73702 -0.85844,-4.69652 -1.90765,-8.79888 -3.25675,-12.73377 -4.40407,-29.16349 -3.79024,-54.27632 0.55873,-22.85854 1.38395,-31.04039 6.26186,-62.08476 3.60538,-22.94569 6.99413,-39.8427 11.43152,-57 2.1337,-8.25 4.43616,-17.91428 5.11658,-21.47619 2.14937,-11.25153 2.10342,-4.72817 -0.0752,10.67267 -1.15175,8.14194 -3.40387,20.20352 -5.0047,26.80352 -2.61289,10.77256 -7.87814,41.82806 -11.18984,66 -0.71929,5.25003 -1.25583,20.66657 -1.28771,37 -0.0495,25.38093 0.16022,29.06058 2.24247,39.33842 2.78992,13.77089 5.78549,22.25898 7.6086,21.55938 0.87065,-0.3341 2.3844,2.24492 4.57911,7.80156 1.80319,4.56535 5.29172,12.4164 7.75229,17.44677 3.92251,8.01912 4.38762,9.65609 3.77457,13.2847 -0.87026,5.15103 -4.27021,9.28977 -9.85075,11.99126 C 130.99737,403.69559 123,404.84323 123,403.59546 z M 141.58154,108 c 0.2696,-6.875 0.98876,-19.025 1.59814,-27 0.66927,-8.758842 0.88753,-26.118056 0.55124,-43.842828 -0.54308,-28.6244392 -0.61147,-29.4011237 -2.79361,-31.7239028 -1.93037,-2.0547864 -2.01883,-2.4647567 -0.64552,-2.9917452 3.64106,-1.3972045 5.18945,-0.060005 5.8706,5.0698818 1.739,13.0966372 0.35161,72.0151652 -2.22498,94.4885942 -1.97443,17.22137 -2.88707,19.54569 -2.35587,6 z M 4.6946203,84.75 c -1.444278,-16.539713 -2.9048251,-63.331288 -2.2474,-72 L 3.1866491,3 6.0933246,3 C 9.4973838,3 9.5284671,3.1119556 7.2870815,7.2996599 5.747157,10.176786 5.5822246,14.564998 5.653987,50.75 5.6978903,72.8875 5.6227895,91 5.4870965,91 5.3514034,91 4.9947892,88.1875 4.6946203,84.75 z"
         id="path6299"
         inkscape:connector-curvature="0" />
      <path
         style="fill:#979797"
         d="m 56,408 c -4.811885,-0.35517 4.082982,-0.6367 20.5,-0.64885 20.180336,-0.0149 25.95874,0.19681 19,0.69624 C 83.701005,408.8942 67.8572,408.87519 56,408 z M 20.247046,403.29388 C 16.523546,402.577 11.307387,396.85526 10.020495,392.07611 8.6718025,387.06745 8.8487156,386.46468 16.94006,368.5 c 2.724937,-6.05 5.400748,-10.89664 5.946246,-10.77031 0.545497,0.12632 1.230466,-0.54868 1.522153,-1.5 4.419193,-14.41305 7.829063,-28.23155 9.22842,-37.39816 3.002554,-19.66851 2.019186,-51.50249 -2.227904,-72.12259 -0.769309,-3.73508 -1.860582,-10.93508 -2.425051,-16 C 28.419455,225.64402 27.310038,219.475 26.518552,217 c -1.710199,-5.34785 -4.817435,-23.03445 -4.161923,-23.68996 0.676904,-0.67691 3.470115,9.44825 6.673244,24.18996 1.553577,7.15 3.743755,16.825 4.867063,21.5 4.732577,19.69611 7.794078,54.13088 6.623592,74.5 -0.75902,13.20869 -3.671667,31.84262 -6.015786,38.48656 C 33.677134,354.33225 33,356.57517 33,356.97083 c 0,0.62215 18.915435,0.44263 24.461685,-0.23216 2.485856,-0.30244 3.256974,2.77158 0.92019,3.66829 -0.943971,0.36223 -2.16,0.21491 -2.702288,-0.32737 -0.56203,-0.56203 -1.672569,-0.62928 -2.582783,-0.1564 -0.878242,0.45627 -4.629569,1.14552 -8.336282,1.53166 -6.917891,0.72067 -9.618441,2.14472 -5.55142,2.92737 9.062407,1.74396 15.830485,2.53982 17.183515,2.02061 2.074757,-0.79616 3.228347,2.14403 1.607487,4.09704 -0.793748,0.95641 -1.757043,1.17591 -2.741885,0.62476 -0.83503,-0.46731 -3.458645,-0.63094 -5.830254,-0.36362 C 45.60672,371.19172 32.415117,369.8045 26.25,368.32364 24.559523,367.91758 24,368.22405 24,369.55605 c 0,0.97508 -1.565952,5.07197 -3.479893,9.1042 -4.601181,9.69364 -4.896081,11.19567 -3.060589,15.58862 1.169201,2.79829 2.79921,4.35528 6.548577,6.25523 C 26.753643,401.89538 29,403.25111 29,403.51685 c 0,0.55582 -5.425725,0.41761 -8.752954,-0.22297 z M 124,403.59502 c 0,-0.22274 2.1375,-1.64628 4.75,-3.16343 2.6125,-1.51715 5.04722,-3.2088 5.41049,-3.75921 1.10759,-1.67819 -0.34127,-7.84996 -3.32707,-14.17238 -4.24276,-8.98403 -4.64707,-12.37766 -1.73623,-14.57331 3.22081,-2.42946 1.74102,-3.50944 -2.84222,-2.07431 -9.03521,2.82916 -47.893227,6.99114 -51.685515,5.5359 C 73.706255,371.05704 73,370.175 73,369.42819 c 0,-2.24572 3.509457,-3.42803 10.184259,-3.43101 7.946989,-0.004 23.214201,-1.76642 27.799821,-3.20999 3.03929,-0.95678 3.23078,-1.19573 1.5,-1.87171 -1.09125,-0.4262 -4.29673,-0.80654 -7.1233,-0.84519 -3.48572,-0.0477 -5.897527,-0.68434 -7.496126,-1.9788 l -2.356913,-1.90852 3.816171,-0.71591 c 2.098898,-0.39376 7.403418,-0.50826 11.787828,-0.25445 4.38441,0.25381 8.1851,0.11611 8.44598,-0.306 0.26088,-0.42212 -0.40662,-4.06128 -1.48334,-8.08705 -3.6747,-13.73944 -4.52202,-22.64742 -4.54856,-47.81956 -0.0285,-27.06824 0.45689,-32.13222 6.99751,-73 4.59879,-28.73466 7.69013,-43.72348 11.96207,-58 l 2.54345,-8.5 -0.50311,7 c -0.27671,3.85 -1.87726,12.61779 -3.55678,19.48399 -3.29812,13.48339 -10.24497,56.3884 -12.14601,75.01601 -0.6455,6.325 -1.1865,20.725 -1.20223,32 -0.0304,21.79094 2.13494,39.27961 6.46539,52.21845 1.05264,3.14515 1.91389,6.46275 1.91389,7.37245 0,1.37703 0.25827,1.43964 1.54238,0.37393 1.98721,-1.64924 2.85957,-0.67002 4.93116,5.53517 0.91808,2.75 4.09429,10.175 7.05824,16.5 4.87755,10.40857 5.30546,11.8665 4.50874,15.36164 -1.06928,4.69087 -5.16511,9.25376 -10.54052,11.7425 -3.5475,1.64244 -9.5,2.57659 -9.5,1.49088 z M 74,358 c 0,-1.84314 0.666667,-2 8.5,-2 4.793355,0 8.5,0.42073 8.5,0.96482 C 91,358.84881 87.042482,360 80.565741,360 74.666667,360 74,359.79693 74,358 z M 143.115,93.809017 C 143.05175,90.128976 143.45,86.839919 144,86.5 c 1.20102,-0.742269 1.23012,4.33025 0.0574,10 -0.76892,3.71741 -0.8355,3.5273 -0.94237,-2.690983 z M 144.37049,65.5 c 0.33491,-10.45 0.27605,-27.615269 -0.13079,-38.145042 -0.65189,-16.87234 -0.96838,-19.3977257 -2.66607,-21.2736287 -2.18246,-2.4115572 -1.07011,-4.5145379 2.07015,-3.9137791 1.64163,0.3140578 1.94119,1.7988708 2.59122,12.8437798 0.78871,13.401257 -0.61047,67.721115 -1.77278,68.823906 C 144.07687,84.200856 144.03559,75.95 144.37049,65.5 z M 3.6648305,59 C 3.2296898,52.125 3.0145908,36.825 3.1868328,25 3.4989393,3.5728187 3.5076206,3.4989177 5.75,3.180449 8.2013164,2.8323066 8.8008466,4.7991534 6.8408517,6.7591483 6.0377674,7.5622326 5.4934487,17.683722 5.0688495,39.709148 4.509396,68.729933 4.3870581,70.410824 3.6648305,59 z"
         id="path6297"
         inkscape:connector-curvature="0" />
      <path
         style="fill:#878787"
         d="m 58,408.04019 c -7.590352,-0.46894 -2.625476,-0.70294 17.916667,-0.84444 15.629166,-0.10766 28.229163,-0.0263 28.000003,0.18071 -0.86348,0.78015 -35.846921,1.28584 -45.91667,0.66373 z m -36.520922,-4.9694 c -4.558482,-1.09323 -8.127381,-3.80987 -9.892925,-7.53048 -2.7243291,-5.7411 -2.0159106,-10.33423 3.34765,-21.70497 2.713592,-5.75281 5.237376,-11.66919 5.608408,-13.1475 C 20.976933,358.95577 21.889448,358 23.108408,358 c 1.12812,0 1.898722,-0.70632 1.909257,-1.75 0.0097,-0.9625 1.376959,-6.025 3.03832,-11.25 8.633287,-27.1518 10.100072,-62.862 4.012743,-97.69378 -2.302656,-13.17583 -3.475382,-23.01529 -2.646414,-22.20407 1.049678,1.02721 6.336104,23.85463 8.081725,34.89785 2.630095,16.63862 3.188886,54.86482 1.024518,70.08605 -1.567576,11.0242 -3.918241,21.24478 -6.044853,26.28274 -0.751306,1.77985 -0.309033,1.83445 9.292882,1.1472 5.544953,-0.39687 10.585462,-0.41027 11.201131,-0.0298 2.18075,1.34778 -1.106483,3.51346 -5.350162,3.52478 -8.876298,0.0237 -14.480501,1.95574 -9.877555,3.40534 2.139683,0.67384 13.636261,2.51608 17.75,2.84429 1.893619,0.15109 3,0.79255 3,1.73936 0,2.15707 -10.477873,2.38564 -23.280274,0.50785 -12.58712,-1.84621 -12.286844,-1.84633 -11.576466,0.005 0.31927,0.83201 0.133843,2.06951 -0.412061,2.75 C 21.634154,374.25353 16,388.29216 16,390.28072 c 0,3.26758 2.790744,7.31503 6.934571,10.05728 5.650332,3.73922 5.320815,4.35791 -1.455493,2.73279 z M 130.25,399.97916 c 5.93118,-3.72457 6.10538,-5.87958 1.30351,-16.12537 -1.89556,-4.04458 -3.73746,-8.99767 -4.0931,-11.00685 -0.55449,-3.13257 -0.34839,-3.74772 1.44648,-4.31739 1.17295,-0.37228 2.09311,-1.51393 2.09311,-2.59694 0,-2.11392 -1.19991,-2.43117 -3.8437,-1.01626 -0.94171,0.50399 -7.32463,1.9213 -14.18426,3.14957 C 97.352052,370.86282 73.5,371.42726 73.5,369 c 0,-1.20887 2.897877,-1.74989 14.930903,-2.7875 25.083477,-2.16296 34.067697,-5.28516 18.898037,-6.56747 -4.25591,-0.35976 -8.13518,-1.05127 -8.620608,-1.5367 -1.769901,-1.7699 1.976138,-2.56919 11.634208,-2.48238 l 9.84254,0.0885 -0.49984,-2.6072 c -0.27491,-1.43397 -1.42831,-6.87648 -2.56311,-12.09449 -4.46185,-20.51641 -5.05479,-50.85947 -1.55046,-79.34358 4.57552,-37.19107 14.97787,-91.73837 18.0317,-94.55371 1.19192,-1.09884 -0.64542,10.15117 -3.19765,19.57912 -3.42944,12.66838 -11.11789,63.2111 -12.50172,82.18449 -2.0534,28.15365 -0.17896,54.19995 5.29818,73.62096 1.08578,3.85 2.04698,8.2375 2.13599,9.75 0.17855,3.03417 0.66892,3.34291 2.46183,1.55 1.66447,-1.66447 2.53758,-0.486 5.70484,7.7 1.48961,3.85 4.51077,10.55984 6.7137,14.91076 3.32002,6.55724 3.92378,8.63425 3.52871,12.13931 -0.85111,7.55101 -8.24318,14.47865 -15.39838,14.43093 -2.71419,-0.0181 -2.62432,-0.16001 1.90113,-3.00184 z M 55.495635,358.99294 c -0.75928,-1.22854 1.992822,-2.42712 3.47279,-1.51245 0.585309,0.36174 0.805301,1.07661 0.48887,1.58861 -0.76324,1.23495 -3.180065,1.18848 -3.96166,-0.0762 z M 74.5,359 c -1.312657,-2.12392 0.877535,-3 7.5,-3 7.136051,0 9.48286,1.13603 6.09375,2.94983 C 85.59691,360.28609 75.318297,360.32403 74.5,359 z M 26.236782,214.5 C 24.836141,209.44159 23.611769,201 24.278737,201 c 0.867244,0 3.920796,13.74348 3.481901,15.67141 -0.277157,1.21746 -0.786441,0.49176 -1.523856,-2.17141 z M 3.1149991,22.718615 C 3.0196521,7.1467669 3.2481505,3.8420061 4.4521129,3.3800024 7.1264084,2.3537789 7.8121877,3.8650315 6.4299707,7.7386093 5.6485946,9.9283676 5.0453662,16.096161 4.9862631,22.5 4.9304258,28.55 4.5124236,35.3 4.0573694,37.5 3.4962933,40.212572 3.1929849,35.455081 3.1149991,22.718615 z M 144.58317,25.25 C 144.13909,14.101938 143.51035,8.6490954 142.43131,6.5878036 141.22419,4.2818348 141.16977,3.5131105 142.16988,2.895006 c 3.04431,-1.8814826 3.61557,1.1017102 3.76067,19.638636 C 146.01005,32.690139 145.88058,41 145.64283,41 c -0.23774,0 -0.71459,-7.0875 -1.05966,-15.75 z"
         id="path6295"
         inkscape:connector-curvature="0" />
      <path
         style="fill:#787878"
         d="m 55.25,407.26101 c 3.1625,-0.19845 8.3375,-0.19845 11.5,0 3.1625,0.19845 0.575,0.36082 -5.75,0.36082 -6.325,0 -8.9125,-0.16237 -5.75,-0.36082 z m 32.036513,-10e-4 c 3.182582,-0.19905 8.132582,-0.1972 11,0.004 2.867417,0.20131 0.263487,0.36417 -5.786513,0.36191 -6.05,-0.002 -8.396069,-0.16696 -5.213487,-0.36601 z M 17.304334,401.044 C 13.091732,398.47542 11.145097,395.34046 10.406279,389.93504 9.7763121,385.326 9.7659328,385.35707 17.734467,368 c 1.641262,-3.575 3.259912,-7.29167 3.596998,-8.25928 0.337086,-0.9676 1.11784,-1.6426 1.735008,-1.5 2.287099,0.52846 9.234643,-25.1149 11.549681,-42.62982 1.932181,-14.61833 1.337899,-50.08046 -1.066005,-63.6109 -1.810208,-10.18881 -1.952134,-13.78499 -0.394657,-10 1.807827,4.39339 4.763616,22.65925 5.954404,36.79637 2.030987,24.11202 -0.556838,57.44071 -5.743932,73.97628 -0.909697,2.89996 -1.475615,5.45103 -1.257597,5.66905 0.218018,0.21802 4.670325,0.0354 9.894015,-0.40586 5.22369,-0.44123 9.835118,-0.60325 10.247618,-0.36003 2.042304,1.2042 0.193855,2.24053 -5,2.80324 -12.831262,1.39016 -13.602796,1.59673 -11.989491,3.21003 0.838617,0.83862 4.234267,1.71484 7.858121,2.02774 3.509753,0.30304 7.221369,0.98466 8.248035,1.5147 1.64387,0.8487 1.690893,1.13949 0.39398,2.43641 -1.296913,1.29691 -2.832609,1.28885 -12.866665,-0.0675 -6.266689,-0.8471 -12.477549,-1.8498 -13.801911,-2.22824 -2.152495,-0.61506 -2.342577,-0.43814 -1.791851,1.66784 0.338844,1.29575 0.102868,2.97428 -0.524391,3.73008 -1.56568,1.88653 -5.87966,12.13332 -6.485413,15.4045 -0.50443,2.724 1.315059,9.796 2.537138,9.86135 0.369846,0.0198 2.022448,1.14255 3.672448,2.49504 l 3,2.45907 -2.5,10e-4 c -1.375,6.8e-4 -3.93805,-0.8756 -5.695666,-1.94729 z M 128,402.176 c 0,-0.4532 1.68417,-1.7109 3.7426,-2.79488 3.47843,-1.83177 3.71874,-2.24775 3.40465,-5.8934 -0.18587,-2.15739 -1.5832,-6.41219 -3.10518,-9.45512 -1.52197,-3.04293 -3.3386,-7.29476 -4.03695,-9.44851 -1.21495,-3.74694 -1.15616,-3.99863 1.36257,-5.8334 2.85775,-2.08172 3.0391,-2.56041 1.74417,-4.60394 -0.65274,-1.03009 -1.34168,-1.09412 -2.88501,-0.26816 -3.98681,2.13368 -27.96343,6.07031 -41.080024,6.74477 -12.783017,0.65732 -13.337602,0.60529 -12.98849,-1.21836 0.321653,-1.68022 1.661282,-1.99143 11.353174,-2.63752 C 104.75306,365.48479 116,363.41034 116,361.144 c 0,-0.49803 -3.45229,-1.29666 -7.67176,-1.77475 -4.79562,-0.54337 -7.83364,-1.36063 -8.10356,-2.17994 -0.33862,-1.02784 1.61572,-1.2694 9.05581,-1.11933 5.2182,0.10525 9.94424,-0.0908 10.50233,-0.43576 0.66125,-0.40867 0.37412,-3.15374 -0.8243,-7.88067 -5.06645,-19.9835 -6.60815,-55.87827 -3.49153,-81.29156 2.14911,-17.52411 5.80241,-40.14571 6.2616,-38.77247 0.21877,0.65424 -0.51264,7.62924 -1.62535,15.5 -2.95724,20.91809 -4.2523,46.78729 -3.11939,62.31048 1.02514,14.04645 4.12705,33.08536 6.65044,40.8192 0.86483,2.65055 1.3633,5.91305 1.10773,7.25 -0.53793,2.81398 0.82392,3.13359 3.40381,0.79882 1.68833,-1.52791 1.8687,-1.45999 2.82874,1.0651 0.56399,1.48339 1.02543,3.12362 1.02543,3.64494 0,0.52133 2.72073,6.67843 6.04607,13.68247 5.19551,10.9431 5.95676,13.26327 5.41117,16.49255 -0.34919,2.06687 -1.42351,4.31797 -2.38737,5.00243 -0.96386,0.68447 -2.31011,2.29509 -2.99166,3.57915 C 136.43955,400.92191 128,404.55738 128,402.176 z M 54.5,370 c -0.83704,-1.35436 0.292427,-3 2.059017,-3 C 57.351558,367 58,367.9 58,369 c 0,2.07031 -2.41251,2.7596 -3.5,1 z M 56,358.5 c 0,-0.825 0.675,-1.5 1.5,-1.5 0.825,0 1.5,0.675 1.5,1.5 0,0.825 -0.675,1.5 -1.5,1.5 -0.825,0 -1.5,-0.675 -1.5,-1.5 z m 18.570755,0.61448 C 73.207274,356.90832 75.228156,356 81.5,356 c 5.776311,0 8.820501,1.06585 6.731551,2.35689 -1.961283,1.21214 -13.001472,1.8244 -13.660796,0.75759 z M 122.07895,223.41667 c 0.048,-1.16495 0.28494,-1.4019 0.60416,-0.60417 0.28887,0.72188 0.25335,1.58437 -0.0789,1.91667 -0.3323,0.33229 -0.56864,-0.25834 -0.52522,-1.3125 z m 1.116,-6.91667 c 0.0204,-1.65 0.2445,-2.20394 0.49804,-1.23097 0.25354,0.97297 0.23687,2.32297 -0.037,3 C 123.38206,218.94606 123.17462,218.15 123.195,216.5 z M 26.157895,212 c 0,-1.375 0.226973,-1.9375 0.504386,-1.25 0.277412,0.6875 0.277412,1.8125 0,2.5 -0.277413,0.6875 -0.504386,0.125 -0.504386,-1.25 z m 97.941785,-1.58333 c 0.0548,-1.60417 0.48203,-4.04167 0.94935,-5.41667 0.57301,-1.68596 0.66164,-0.87192 0.27219,2.5 -0.64968,5.62515 -1.37314,7.35254 -1.22154,2.91667 z M 129.13155,185 c -0.005,-1.375 0.84644,-4.975 1.89243,-8 l 1.90179,-5.5 -0.58467,4.45055 c -0.32156,2.44781 -1.17315,6.04781 -1.89242,8 -1.11894,3.03698 -1.30911,3.1885 -1.31713,1.04945 z M 4.1926797,12.25 C 4.0349789,5.4976979 4.2723087,4 5.5,4 7.2042709,4 7.452699,5.145961 6.0528037,6.55 5.5318458,7.0725 4.9435516,10.425 4.7454834,14 4.3962215,20.303945 4.3795476,20.251161 4.1926797,12.25 z M 143.2,6.8 C 141.53146,5.1314611 141.69973,3 143.5,3 c 0.93333,0 1.5,0.9444444 1.5,2.5 0,2.8506466 -0.14479,2.9552142 -1.8,1.3 z"
         id="path6293"
         inkscape:connector-curvature="0" />
      <path
         style="fill:#505050"
         d="m 54.761659,407.29274 c 1.243913,-0.23919 3.043913,-0.23011 4,0.0202 0.956088,0.25029 -0.06166,0.446 -2.261659,0.4349 -2.2,-0.0111 -2.982253,-0.21589 -1.738341,-0.45508 z m -39.092356,-8.33823 c -2.587688,-2.03547 -4.653093,-7.28325 -4.663726,-11.84958 -0.0031,-1.31729 1.504209,-5.59229 3.349503,-9.5 1.845294,-3.90771 3.631171,-7.89243 3.968615,-8.85493 0.831861,-2.37273 2.364263,-2.20157 3.767733,0.42083 0.946038,1.76769 0.859717,2.39173 -0.464816,3.36025 C 20.731975,373.18525 20,374.44504 20,375.33061 c 0,0.88556 -1.125,4.06962 -2.5,7.07568 -1.375,3.00605 -2.5,6.37322 -2.5,7.48258 0,2.96609 2.092937,7.36572 4.442583,9.33889 3.101331,2.60442 -0.441043,2.34789 -3.77328,-0.27325 z M 134.14571,388.23292 c -1.29486,-3.15311 -3.30612,-8.28176 -4.46946,-11.39702 l -2.11516,-5.6641 2.96945,-2.8359 2.96946,-2.8359 4.75,9.25275 c 2.6125,5.08901 4.75,10.19454 4.75,11.34563 0,2.50113 -3.64737,7.90868 -5.31809,7.88454 -0.65005,-0.009 -2.24134,-2.5969 -3.5362,-5.75 z M 36.269687,368.57769 c -8.090057,-1.18445 -10.229199,-1.95151 -8.965738,-3.21497 0.977196,-0.9772 23.727106,1.99956 23.976684,3.13728 0.315169,1.43672 -5.522169,1.46693 -15.010946,0.0777 z M 55,369 c 0,-0.55 0.675,-1 1.5,-1 0.825,0 1.5,0.45 1.5,1 0,0.55 -0.675,1 -1.5,1 -0.825,0 -1.5,-0.45 -1.5,-1 z m 19.5,0.27563 c 0.55,-0.53721 7.922694,-1.53504 16.383764,-2.21741 8.461071,-0.68237 17.686066,-1.92083 20.499996,-2.75213 2.81393,-0.8313 7.36624,-1.73173 10.11624,-2.00095 5.61862,-0.55007 7.81505,-1.87418 5.49164,-3.31062 -1.29625,-0.8014 -1.25768,-1.15616 0.29452,-2.70836 1.55906,-1.55905 1.90677,-1.59544 2.73469,-0.28616 1.49251,2.36025 1.14223,4.84235 -0.83249,5.89919 -0.9964,0.53326 -7.60017,2.37717 -14.67504,4.09757 -10.00836,2.43375 -15.987346,3.25314 -26.938361,3.69181 -9.166856,0.3672 -13.726247,0.2232 -13.074959,-0.41294 z m -50.935239,-8.17085 c -0.304301,-0.49236 0.119142,-1.15324 0.940983,-1.46861 C 25.327585,359.3208 26,358.40963 26,357.61136 c 0,-0.79828 1.530894,-6.7749 3.401988,-13.28139 4.963069,-17.25843 9.158641,-49.07104 7.956554,-60.32997 -0.295301,-2.76583 -0.177078,-3.08047 0.563601,-1.5 1.480844,3.15985 1.214292,27.0514 -0.418378,37.5 -0.816445,5.225 -2.623967,15.575 -4.016716,23 -1.392749,7.425 -2.542633,14.38613 -2.555298,15.46919 -0.01266,1.08305 -0.56499,2.31366 -1.227389,2.73469 -1.655633,1.05232 -5.465993,0.99083 -6.139601,-0.0991 z m 15.698989,-1.82236 c 1.520062,-0.22986 3.770062,-0.22371 5,0.0136 1.229937,0.23736 -0.01375,0.42542 -2.76375,0.41792 -2.75,-0.008 -3.756313,-0.20172 -2.23625,-0.43157 z M 76,358 c 0,-0.55 1.376558,-1 3.059017,-1 1.784701,0 2.801558,0.41658 2.440983,1 -0.339919,0.55 -1.716476,1 -3.059017,1 C 77.098442,359 76,358.55 76,358 z m 31,0 c -1.90162,-0.60901 -1.10961,-0.8245 3.30902,-0.90032 3.64096,-0.0625 5.57835,0.27354 5.19098,0.90032 -0.71547,1.15766 -4.88521,1.15766 -8.5,0 z m 14.55114,-3.25 c -3.35412,-10.85914 -6.56347,-32.7498 -6.4141,-43.75 l 0.12899,-9.5 0.82875,7.8525 c 1.24202,11.76836 5.7541,35.6938 7.43952,39.44825 1.08817,2.42401 1.20465,3.81851 0.43854,5.25 -1.20915,2.25931 -1.88001,2.45302 -2.4217,0.69925 z"
         id="path6289"
         inkscape:connector-curvature="0" />
    </g>
  </g>
</svg>
