<?xml version="1.0" encoding="UTF-8" standalone="no"?>
<!-- Created with Inkscape (http://www.inkscape.org/) -->

<svg
   xmlns:dc="http://purl.org/dc/elements/1.1/"
   xmlns:cc="http://creativecommons.org/ns#"
   xmlns:rdf="http://www.w3.org/1999/02/22-rdf-syntax-ns#"
   xmlns:svg="http://www.w3.org/2000/svg"
   xmlns="http://www.w3.org/2000/svg"
   xmlns:sodipodi="http://sodipodi.sourceforge.net/DTD/sodipodi-0.dtd"
   xmlns:inkscape="http://www.inkscape.org/namespaces/inkscape"
   width="120"
   height="120"
   id="svg2"
   version="1.1"
   inkscape:version="0.48.2 r9819"
   sodipodi:docname="save.svg">
  <defs
     id="defs4" />
  <sodipodi:namedview
     id="base"
     pagecolor="#ffffff"
     bordercolor="#666666"
     borderopacity="1.0"
     inkscape:pageopacity="0.0"
     inkscape:pageshadow="2"
     inkscape:zoom="3.959798"
     inkscape:cx="-1.8841798"
     inkscape:cy="94.995477"
     inkscape:document-units="px"
     inkscape:current-layer="layer1"
     showgrid="false"
     showguides="true"
     inkscape:guide-bbox="true"
     inkscape:window-width="1680"
     inkscape:window-height="988"
     inkscape:window-x="-8"
     inkscape:window-y="-8"
     inkscape:window-maximized="1" />
  <metadata
     id="metadata7">
    <rdf:RDF>
      <cc:Work
         rdf:about="">
        <dc:format>image/svg+xml</dc:format>
        <dc:type
           rdf:resource="http://purl.org/dc/dcmitype/StillImage" />
        <dc:title></dc:title>
      </cc:Work>
    </rdf:RDF>
  </metadata>
  <g
     inkscape:label="Livello 1"
     inkscape:groupmode="layer"
     id="layer1"
     transform="translate(0,-932.3622)">
    <path
       id="path3824-7-0-4-82-5-5"
       style="font-size:medium;font-style:normal;font-variant:normal;font-weight:normal;font-stretch:normal;text-indent:0;text-align:start;text-decoration:none;line-height:normal;letter-spacing:normal;word-spacing:normal;text-transform:none;direction:ltr;block-progression:tb;writing-mode:lr-tb;text-anchor:start;baseline-shift:baseline;color:#000000;fill:#000000;fill-opacity:1;stroke:none;stroke-width:1;marker:none;visibility:visible;display:inline;overflow:visible;enable-background:accumulate;font-family:Sans;-inkscape-font-specification:Sans"
       d="m 12.084049,1017.3392 -3.5355341,3.5356 3.5355341,3.5355 15.865702,15.8657 3.53553,3.5356 3.53554,-3.5356 c 8.02361,-8.0236 16.04729,-16.0473 24.07097,-24.071 l 24.07313,24.0732 3.53553,3.5355 3.53552,-3.5355 15.865699,-15.8657 3.53553,-3.5355 -3.53553,-3.5356 c -8.023669,-8.0236 -16.047329,-16.0473 -24.070989,-24.07097 l 24.073119,-24.07312 3.53554,-3.53554 -3.53554,-3.53553 -15.865699,-15.8657 -3.53553,-3.53553 -3.53554,3.53553 c -8.02366,8.02366 -16.04733,16.04733 -24.07099,24.07099 l -24.07312,-24.07313 -3.53554,-3.53553 -3.53553,3.53553 -15.865703,15.8657 -3.5355271,3.53553 3.5355341,3.53553 c 8.023661,8.02367 16.047326,16.04733 24.070986,24.071 z m 10.608665,-51.6796 8.794637,-8.79463 27.61873,27.6258 27.59646,-27.62361 8.79463,8.79463 -27.62577,27.6187 27.62362,27.59651 -8.79463,8.7946 -27.61873,-27.6258 -27.5965,27.6236 -8.79463,-8.7946 27.62581,-27.61873 z"
       inkscape:connector-curvature="0"
       sodipodi:nodetypes="cccccsccccccsccccccsccccccsccccccccccccccc" />
  </g>
</svg>
