<?xml version="1.0" encoding="UTF-8" standalone="no"?>
<!-- Created with Inkscape (http://www.inkscape.org/) -->

<svg
   xmlns:dc="http://purl.org/dc/elements/1.1/"
   xmlns:cc="http://creativecommons.org/ns#"
   xmlns:rdf="http://www.w3.org/1999/02/22-rdf-syntax-ns#"
   xmlns:svg="http://www.w3.org/2000/svg"
   xmlns="http://www.w3.org/2000/svg"
   xmlns:sodipodi="http://sodipodi.sourceforge.net/DTD/sodipodi-0.dtd"
   xmlns:inkscape="http://www.inkscape.org/namespaces/inkscape"
   width="120"
   height="120"
   id="svg2"
   version="1.1"
   inkscape:version="0.48.2 r9819"
   sodipodi:docname="filter">
  <defs
     id="defs4" />
  <sodipodi:namedview
     id="base"
     pagecolor="#ffffff"
     bordercolor="#666666"
     borderopacity="1.0"
     inkscape:pageopacity="0.0"
     inkscape:pageshadow="2"
     inkscape:zoom="3.959798"
     inkscape:cx="121.16733"
     inkscape:cy="60.623673"
     inkscape:document-units="px"
     inkscape:current-layer="layer1"
     showgrid="false"
     showguides="true"
     inkscape:guide-bbox="true"
     inkscape:window-width="1680"
     inkscape:window-height="988"
     inkscape:window-x="-8"
     inkscape:window-y="-8"
     inkscape:window-maximized="1" />
  <metadata
     id="metadata7">
    <rdf:RDF>
      <cc:Work
         rdf:about="">
        <dc:format>image/svg+xml</dc:format>
        <dc:type
           rdf:resource="http://purl.org/dc/dcmitype/StillImage" />
        <dc:title></dc:title>
      </cc:Work>
    </rdf:RDF>
  </metadata>
  <g
     inkscape:label="Livello 1"
     inkscape:groupmode="layer"
     id="layer1"
     transform="translate(0,-932.3622)">
    <path
       style="font-size:medium;font-style:normal;font-variant:normal;font-weight:normal;font-stretch:normal;text-indent:0;text-align:start;text-decoration:none;line-height:normal;letter-spacing:normal;word-spacing:normal;text-transform:none;direction:ltr;block-progression:tb;writing-mode:lr-tb;text-anchor:start;baseline-shift:baseline;color:#000000;fill:#000000;fill-opacity:1;stroke:none;stroke-width:1;marker:none;visibility:visible;display:inline;overflow:visible;enable-background:accumulate;font-family:Sans;-inkscape-font-specification:Sans"
       d="m 11.724081,937.21807 c -2.4694597,-0.004 -5.3865597,0.2584 -7.6249997,2.625 -2.23844,2.3666 -2.34375,5.09247 -2.34375,7.5 l 0,13.3125 0,2.34375 1.8125,1.5 18.0937527,14.9375 6.375,-7.6875 -16.281253,-13.46875 0,-11 c 0,-0.0812 96.421879,0.34378 96.421879,0.34378 0.61303,8.7e-4 0.14063,10.53127 0.14063,10.53127 l -39.250006,29.46874 -1.8125,1.375 -0.1875,2.25 -3.5625,44.99994 c -0.01031,0.1299 -0.09001,0.3521 -0.15625,0.5938 l -7,0.125 c -0.07292,-0.1796 -0.185523,-0.3694 -0.1875,-0.4063 l -0.53125,-10 -10,0.5312 0.53125,10 c 0.127304,2.3764 0.972021,4.4822 2.4375,6.3438 1.465479,1.8615 3.947781,3.6215 7.09375,3.5625 l 9.5,-0.1875 c 3.502609,-0.066 5.66719,-2.5575 6.6875,-4.4063 1.02031,-1.8488 1.45341,-3.6067 1.59375,-5.375 l 3.375,-42.74994 39.468756,-29.62499 2,-1.5 0,-2.5 0,-12.75 c 0,-2.45865 -0.69825,-5.0733 -2.53125,-7.1875 -1.833,-2.1142 -4.77827,-3.37085 -7.71875,-3.375 z m 8.71875,44.28125 -7.125,7.03124 11.875003,12.03124 -11.781253,11.9375 7.125003,7.0312 11.6875,-11.8437 11.625,11.75 7.125,-7.0313 -11.6875,-11.8437 11.78125,-11.93749 -7.125,-7.03124 -11.71875,11.84374 z"
       id="path3043-1-7"
       inkscape:connector-curvature="0"
       sodipodi:nodetypes="csscccccccccccccccccccsccscccccssccccccccccccccc" />
  </g>
</svg>
