<?xml version="1.0" encoding="UTF-8" standalone="no"?>
<!-- Created with Inkscape (http://www.inkscape.org/) -->

<svg
   xmlns:dc="http://purl.org/dc/elements/1.1/"
   xmlns:cc="http://creativecommons.org/ns#"
   xmlns:rdf="http://www.w3.org/1999/02/22-rdf-syntax-ns#"
   xmlns:svg="http://www.w3.org/2000/svg"
   xmlns="http://www.w3.org/2000/svg"
   xmlns:sodipodi="http://sodipodi.sourceforge.net/DTD/sodipodi-0.dtd"
   xmlns:inkscape="http://www.inkscape.org/namespaces/inkscape"
   width="120"
   height="120"
   id="svg2"
   version="1.1"
   inkscape:version="0.48.2 r9819"
   sodipodi:docname="filter.svg">
  <defs
     id="defs4" />
  <sodipodi:namedview
     id="base"
     pagecolor="#ffffff"
     bordercolor="#666666"
     borderopacity="1.0"
     inkscape:pageopacity="0.0"
     inkscape:pageshadow="2"
     inkscape:zoom="3.959798"
     inkscape:cx="71.847762"
     inkscape:cy="52.633938"
     inkscape:document-units="px"
     inkscape:current-layer="layer1"
     showgrid="false"
     showguides="true"
     inkscape:guide-bbox="true"
     inkscape:window-width="1280"
     inkscape:window-height="1002"
     inkscape:window-x="1672"
     inkscape:window-y="-8"
     inkscape:window-maximized="1" />
  <metadata
     id="metadata7">
    <rdf:RDF>
      <cc:Work
         rdf:about="">
        <dc:format>image/svg+xml</dc:format>
        <dc:type
           rdf:resource="http://purl.org/dc/dcmitype/StillImage" />
        <dc:title></dc:title>
      </cc:Work>
    </rdf:RDF>
  </metadata>
  <g
     inkscape:label="Livello 1"
     inkscape:groupmode="layer"
     id="layer1"
     transform="translate(0,-932.3622)">
    <path
       style="font-size:medium;font-style:normal;font-variant:normal;font-weight:normal;font-stretch:normal;text-indent:0;text-align:start;text-decoration:none;line-height:normal;letter-spacing:normal;word-spacing:normal;text-transform:none;direction:ltr;block-progression:tb;writing-mode:lr-tb;text-anchor:start;baseline-shift:baseline;color:#000000;fill:#000000;fill-opacity:1;stroke:none;stroke-width:1;marker:none;visibility:visible;display:inline;overflow:visible;enable-background:accumulate;font-family:Sans;-inkscape-font-specification:Sans"
       d="m 60.46875,933.375 c -3.674966,0 -7.278731,0.31858 -10.75,0.9375 l -4.125,0.75 0,4.1875 0,12.53125 c -1.173358,0.42682 -2.316587,0.87865 -3.4375,1.40625 -2.94111,-2.94137 -5.885056,-5.89032 -8.84375,-8.84375 l -2.9375,-2.9375 -3.4375,2.375 C 20.968777,947.87976 15.812352,953.03741 11.71875,959 l -2.375,3.4375 2.96875,2.9375 8.8125,8.8125 c -0.531737,1.13078 -1.005818,2.28572 -1.4375,3.46875 l -12.53125,0 -4.125,0 L 2.25,981.75 c -0.6582741,3.51937 -1,7.12447 -1,10.8125 0,3.6507 0.3542773,7.24912 1.03125,10.75 l 0.78125,4.0625 4.125,0 12.375,-0.031 c 0.438584,1.2254 0.924446,2.4222 1.46875,3.5937 -2.937151,2.9365 -5.886331,5.8918 -8.8125,8.8437 l -2.90625,2.9376 2.375,3.4062 c 4.120795,5.9501 9.248214,11.131 15.1875,15.2188 l 3.4375,2.3437 2.9375,-2.9375 8.71875,-8.6875 c 1.195608,0.5691 2.408737,1.074 3.65625,1.5313 l 0,12.2812 0,4.2188 4.125,0.7187 c 3.462563,0.6081 7.053975,0.9687 10.71875,0.9687 3.678735,0 7.264653,-0.3616 10.75,-1 l 4.09375,-0.75 0,-4.1562 0,-12.2188 c 1.284343,-0.4626 2.527167,-0.9881 3.75,-1.5624 l 8.625,8.6562 2.9375,2.9375 3.4375,-2.375 c 5.93238,-4.1093 11.10635,-9.2502 15.21875,-15.1875 l 2.375,-3.4375 -2.96875,-2.9687 c -2.87386,-2.8769 -5.76667,-5.7427 -8.65625,-8.625 0.56639,-1.2112 1.0732,-2.4471 1.53125,-3.7188 l 12.21875,0 4.125,0 0.78125,-4.0938 c 0.6474,-3.47712 0.96875,-7.06314 0.96875,-10.7187 0,-3.69399 -0.33957,-7.31723 -0.96875,-10.8125 l -0.75,-4.09375 -4.15625,0 -12.3125,0 c -0.45408,-1.23563 -0.94219,-2.4441 -1.5,-3.625 l 8.65625,-8.65625 2.96875,-2.96875 -2.375,-3.40625 c -4.09721,-5.94786 -9.247251,-11.10195 -15.1875,-15.21875 l -3.4375,-2.375 -2.96875,2.9375 c -2.92524,2.91936 -5.851659,5.84477 -8.78125,8.78125 -1.151165,-0.53128 -2.327494,-1.0067 -3.53125,-1.4375 l 0,-12.4375 0,-4.15625 -4.546875,-1.23438 C 70.267913,933.76787 60.46875,933.3752 60.46875,933.3752 z m 0,10 c 1.658691,0 3.230046,0.27765 4.84375,0.4375 l 0,11.46875 0,3.875 3.75,0.96875 c 2.935434,0.75307 5.745793,1.92444 8.3125,3.40625 l 3.3125,1.90625 2.71875,-2.71875 c 2.692111,-2.70299 5.398858,-5.40069 8.09375,-8.09375 2.514164,2.06783 4.785352,4.36677 6.84375,6.875 l -8,8 -2.75,2.71875 1.96875,3.34375 c 1.528639,2.61455 2.707092,5.44726 3.5,8.40625 l 1,3.6875 3.84375,0 11.3125,0 c 0.16035,1.63318 0.4375,3.23027 0.4375,4.90625 0,1.65376 -0.27787,3.21002 -0.4375,4.8125 l -11.25,0 -3.84375,0 -0.96875,3.75 c -0.785732,3.014 -1.978489,5.8442 -3.5,8.4688 l -1.9375,3.3124 2.71875,2.7188 c 2.665449,2.6578 5.315596,5.3174 7.96875,7.9688 -2.069857,2.5163 -4.362069,4.8078 -6.875,6.875 l -7.9375,-7.9688 -2.71875,-2.7188 -3.3125,1.9376 c -2.631189,1.5339 -5.491121,2.7181 -8.5,3.5 l -3.75,0.9687 0,3.875 0,11.2813 c -1.61633,0.1604 -3.182601,0.4374 -4.84375,0.4374 -1.6408,0 -3.235597,-0.2819 -4.84375,-0.4374 l 0,-11.3126 0,-3.8437 -3.71875,-1 c -2.963725,-0.7874 -5.776579,-1.9832 -8.375,-3.5313 l -3.34375,-2 -2.75,2.75 -8.03125,8.0626 c -2.513891,-2.06 -4.800897,-4.3512 -6.875,-6.875 2.69355,-2.707 5.393456,-5.3989 8.09375,-8.0938 l 2.71875,-2.75 -1.9375,-3.3125 C 29.909133,1006.8677 28.756943,1004.0783 28,1001.125 l -0.96875,-3.78125 -3.875,0 -11.4375,0.0312 C 11.555175,995.77506 11.25,994.21912 11.25,992.5625 c 0,-1.67797 0.304414,-3.27531 0.46875,-4.90625 l 11.53125,0 3.875,0 0.96875,-3.71875 c 0.754369,-2.90103 1.941171,-5.68626 3.4375,-8.21875 L 33.5,972.375 l -2.75,-2.75 -8.15625,-8.15625 c 2.053287,-2.50353 4.333178,-4.79044 6.84375,-6.84375 2.741186,2.73738 5.469459,5.46649 8.1875,8.1875 l 2.75,2.75 3.34375,-1.96875 c 2.494769,-1.48636 5.230783,-2.62876 8.125,-3.375 l 3.75,-0.96875 0,-3.90625 0,-11.53125 c 1.620568,-0.15671 3.20867,-0.4375 4.875,-0.4375 z M 60.5625,977.5 c -8.314302,0 -15.15625,6.84195 -15.15625,15.15625 0,8.31435 6.84199,15.18755 15.15625,15.18755 8.31426,0 15.15625,-6.8732 15.15625,-15.18755 0,-8.3143 -6.841948,-15.15625 -15.15625,-15.15625 z m 0,10 c 2.910306,0 5.15625,2.24595 5.15625,5.15625 0,2.91034 -2.245902,5.1875 -5.15625,5.1875 -2.910348,0 -5.15625,-2.27716 -5.15625,-5.1875 0,-2.9103 2.245944,-5.15625 5.15625,-5.15625 z"
       id="path4504"
       inkscape:connector-curvature="0"
       sodipodi:nodetypes="cccccccccccccccccsccccccccccccccccsccccccccccccccccsccccccccccccccccccsccccccccccccccccsccccccccccccccccsccccccccccccccccsccccccccccccccccsssssssssss" />
  </g>
</svg>
